G04 #@! TF.GenerationSoftware,KiCad,Pcbnew,6.0.8-f2edbf62ab~116~ubuntu22.04.1*
G04 #@! TF.CreationDate,2022-10-12T19:37:44+02:00*
G04 #@! TF.ProjectId,Amiga dual floppy selector,416d6967-6120-4647-9561-6c20666c6f70,0.2*
G04 #@! TF.SameCoordinates,Original*
G04 #@! TF.FileFunction,Paste,Top*
G04 #@! TF.FilePolarity,Positive*
%FSLAX46Y46*%
G04 Gerber Fmt 4.6, Leading zero omitted, Abs format (unit mm)*
G04 Created by KiCad (PCBNEW 6.0.8-f2edbf62ab~116~ubuntu22.04.1) date 2022-10-12 19:37:44*
%MOMM*%
%LPD*%
G01*
G04 APERTURE LIST*
G04 Aperture macros list*
%AMRoundRect*
0 Rectangle with rounded corners*
0 $1 Rounding radius*
0 $2 $3 $4 $5 $6 $7 $8 $9 X,Y pos of 4 corners*
0 Add a 4 corners polygon primitive as box body*
4,1,4,$2,$3,$4,$5,$6,$7,$8,$9,$2,$3,0*
0 Add four circle primitives for the rounded corners*
1,1,$1+$1,$2,$3*
1,1,$1+$1,$4,$5*
1,1,$1+$1,$6,$7*
1,1,$1+$1,$8,$9*
0 Add four rect primitives between the rounded corners*
20,1,$1+$1,$2,$3,$4,$5,0*
20,1,$1+$1,$4,$5,$6,$7,0*
20,1,$1+$1,$6,$7,$8,$9,0*
20,1,$1+$1,$8,$9,$2,$3,0*%
G04 Aperture macros list end*
%ADD10RoundRect,0.150000X-0.825000X-0.150000X0.825000X-0.150000X0.825000X0.150000X-0.825000X0.150000X0*%
%ADD11RoundRect,0.250000X0.262500X0.450000X-0.262500X0.450000X-0.262500X-0.450000X0.262500X-0.450000X0*%
%ADD12RoundRect,0.250000X-0.250000X-0.475000X0.250000X-0.475000X0.250000X0.475000X-0.250000X0.475000X0*%
%ADD13RoundRect,0.250000X0.475000X-0.250000X0.475000X0.250000X-0.475000X0.250000X-0.475000X-0.250000X0*%
G04 APERTURE END LIST*
D10*
X120715000Y-85090000D03*
X120715000Y-86360000D03*
X120715000Y-87630000D03*
X120715000Y-88900000D03*
X120715000Y-90170000D03*
X120715000Y-91440000D03*
X120715000Y-92710000D03*
X125665000Y-92710000D03*
X125665000Y-91440000D03*
X125665000Y-90170000D03*
X125665000Y-88900000D03*
X125665000Y-87630000D03*
X125665000Y-86360000D03*
X125665000Y-85090000D03*
X120715000Y-74295000D03*
X120715000Y-75565000D03*
X120715000Y-76835000D03*
X120715000Y-78105000D03*
X120715000Y-79375000D03*
X120715000Y-80645000D03*
X120715000Y-81915000D03*
X120715000Y-83185000D03*
X125665000Y-83185000D03*
X125665000Y-81915000D03*
X125665000Y-80645000D03*
X125665000Y-79375000D03*
X125665000Y-78105000D03*
X125665000Y-76835000D03*
X125665000Y-75565000D03*
X125665000Y-74295000D03*
D11*
X130452500Y-89217500D03*
X128627500Y-89217500D03*
D12*
X128590000Y-93027500D03*
X130490000Y-93027500D03*
X128590000Y-85407500D03*
X130490000Y-85407500D03*
D11*
X130452500Y-87312500D03*
X128627500Y-87312500D03*
D13*
X126682500Y-69911000D03*
X126682500Y-68011000D03*
D11*
X130452500Y-91122500D03*
X128627500Y-91122500D03*
M02*
