%TF.GenerationSoftware,KiCad,Pcbnew,6.0.8-f2edbf62ab~116~ubuntu22.04.1*%
%TF.CreationDate,2022-10-12T19:38:26+02:00*%
%TF.ProjectId,Amiga dual floppy selector,416d6967-6120-4647-9561-6c20666c6f70,0.2*%
%TF.SameCoordinates,Original*%
%TF.FileFunction,Drillmap*%
%TF.FilePolarity,Positive*%
%FSLAX45Y45*%
G04 Gerber Fmt 4.5, Leading zero omitted, Abs format (unit mm)*
G04 Created by KiCad (PCBNEW 6.0.8-f2edbf62ab~116~ubuntu22.04.1) date 2022-10-12 19:38:26*
%MOMM*%
%LPD*%
G01*
G04 APERTURE LIST*
%ADD10C,0.100000*%
%ADD11C,0.200000*%
G04 APERTURE END LIST*
D10*
X13144500Y-6667500D02*
X10604500Y-6667500D01*
X10604500Y-6667500D02*
X10604500Y-11112500D01*
X13144500Y-11112500D02*
X13144500Y-6667500D01*
X10604500Y-11112500D02*
X13144500Y-11112500D01*
D11*
X10857119Y-11427976D02*
X10857119Y-11227976D01*
X10904738Y-11227976D01*
X10933310Y-11237500D01*
X10952357Y-11256548D01*
X10961881Y-11275595D01*
X10971405Y-11313690D01*
X10971405Y-11342262D01*
X10961881Y-11380357D01*
X10952357Y-11399405D01*
X10933310Y-11418452D01*
X10904738Y-11427976D01*
X10857119Y-11427976D01*
X11057119Y-11427976D02*
X11057119Y-11294643D01*
X11057119Y-11332738D02*
X11066643Y-11313690D01*
X11076167Y-11304167D01*
X11095214Y-11294643D01*
X11114262Y-11294643D01*
X11180929Y-11427976D02*
X11180929Y-11294643D01*
X11180929Y-11227976D02*
X11171405Y-11237500D01*
X11180929Y-11247024D01*
X11190452Y-11237500D01*
X11180929Y-11227976D01*
X11180929Y-11247024D01*
X11304738Y-11427976D02*
X11285690Y-11418452D01*
X11276167Y-11399405D01*
X11276167Y-11227976D01*
X11409500Y-11427976D02*
X11390452Y-11418452D01*
X11380928Y-11399405D01*
X11380928Y-11227976D01*
X11638071Y-11427976D02*
X11638071Y-11227976D01*
X11704738Y-11370833D01*
X11771405Y-11227976D01*
X11771405Y-11427976D01*
X11952357Y-11427976D02*
X11952357Y-11323214D01*
X11942833Y-11304167D01*
X11923786Y-11294643D01*
X11885690Y-11294643D01*
X11866643Y-11304167D01*
X11952357Y-11418452D02*
X11933309Y-11427976D01*
X11885690Y-11427976D01*
X11866643Y-11418452D01*
X11857119Y-11399405D01*
X11857119Y-11380357D01*
X11866643Y-11361309D01*
X11885690Y-11351786D01*
X11933309Y-11351786D01*
X11952357Y-11342262D01*
X12047595Y-11294643D02*
X12047595Y-11494643D01*
X12047595Y-11304167D02*
X12066643Y-11294643D01*
X12104738Y-11294643D01*
X12123786Y-11304167D01*
X12133309Y-11313690D01*
X12142833Y-11332738D01*
X12142833Y-11389881D01*
X12133309Y-11408928D01*
X12123786Y-11418452D01*
X12104738Y-11427976D01*
X12066643Y-11427976D01*
X12047595Y-11418452D01*
X12228548Y-11408928D02*
X12238071Y-11418452D01*
X12228548Y-11427976D01*
X12219024Y-11418452D01*
X12228548Y-11408928D01*
X12228548Y-11427976D01*
X12228548Y-11304167D02*
X12238071Y-11313690D01*
X12228548Y-11323214D01*
X12219024Y-11313690D01*
X12228548Y-11304167D01*
X12228548Y-11323214D01*
M02*
