M48
; DRILL file {KiCad 6.0.8-f2edbf62ab~116~ubuntu22.04.1} date mer. 12 oct. 2022 19:38:28
; FORMAT={-:-/ absolute / metric / decimal}
; #@! TF.CreationDate,2022-10-12T19:38:28+02:00
; #@! TF.GenerationSoftware,Kicad,Pcbnew,6.0.8-f2edbf62ab~116~ubuntu22.04.1
; #@! TF.FileFunction,Plated,1,2,PTH
FMAT,2
METRIC
; #@! TA.AperFunction,Plated,PTH,ViaDrill
T1C0.400
; #@! TA.AperFunction,Plated,PTH,ComponentDrill
T2C1.000
; #@! TA.AperFunction,Plated,PTH,ComponentDrill
T3C1.200
%
G90
G05
T1
X118.745Y-84.138
X118.745Y-88.265
X122.555Y-78.105
X122.555Y-90.17
X123.19Y-83.185
X123.19Y-86.995
X123.825Y-81.28
X125.412Y-73.025
X126.682Y-72.072
X127.317Y-75.565
X127.381Y-88.264
X127.381Y-89.535
X127.381Y-90.805
X127.381Y-92.71
X130.493Y-84.138
X130.493Y-94.297
T2
X107.95Y-68.58
X107.95Y-71.12
X107.95Y-73.66
X107.95Y-76.2
X107.95Y-78.74
X107.95Y-81.28
X107.95Y-83.82
X107.95Y-86.36
X107.95Y-88.9
X107.95Y-91.44
X107.95Y-93.98
X107.95Y-96.52
X107.95Y-99.06
X107.95Y-101.6
X107.95Y-104.14
X107.95Y-106.68
X107.95Y-109.22
X110.49Y-68.58
X110.49Y-71.12
X110.49Y-73.66
X110.49Y-76.2
X110.49Y-78.74
X110.49Y-81.28
X110.49Y-83.82
X110.49Y-86.36
X110.49Y-88.9
X110.49Y-91.44
X110.49Y-93.98
X110.49Y-96.52
X110.49Y-99.06
X110.49Y-101.6
X110.49Y-104.14
X110.49Y-106.68
X110.49Y-109.22
X114.08Y-68.59
X114.08Y-71.13
X114.08Y-73.67
X114.08Y-76.21
X114.08Y-78.75
X114.08Y-81.29
X114.08Y-83.83
X114.08Y-86.37
X114.08Y-88.91
X114.08Y-91.45
X114.08Y-93.99
X114.08Y-96.53
X114.08Y-99.07
X114.08Y-101.61
X114.08Y-104.15
X114.08Y-106.69
X114.08Y-109.23
X116.62Y-68.59
X116.62Y-71.13
X116.62Y-73.67
X116.62Y-76.21
X116.62Y-78.75
X116.62Y-81.29
X116.62Y-83.83
X116.62Y-86.37
X116.62Y-88.91
X116.62Y-91.45
X116.62Y-93.99
X116.62Y-96.53
X116.62Y-99.07
X116.62Y-101.61
X116.62Y-104.15
X116.62Y-106.69
X116.62Y-109.23
X121.285Y-68.58
X121.285Y-71.12
X121.285Y-95.885
X121.285Y-98.425
X123.825Y-68.58
X123.825Y-71.12
X123.825Y-95.885
X123.825Y-98.425
X126.365Y-95.885
X126.365Y-98.425
X128.905Y-95.885
X128.905Y-98.425
X129.54Y-68.58
X129.54Y-71.12
X129.54Y-73.66
X129.54Y-76.2
X129.54Y-80.01
X129.54Y-82.55
T3
X121.405Y-100.965
X123.905Y-100.965
X126.405Y-100.965
X128.905Y-100.965
T0
M30
