G04 #@! TF.GenerationSoftware,KiCad,Pcbnew,6.0.8-f2edbf62ab~116~ubuntu22.04.1*
G04 #@! TF.CreationDate,2022-10-12T19:37:44+02:00*
G04 #@! TF.ProjectId,Amiga dual floppy selector,416d6967-6120-4647-9561-6c20666c6f70,0.2*
G04 #@! TF.SameCoordinates,Original*
G04 #@! TF.FileFunction,Copper,L1,Top*
G04 #@! TF.FilePolarity,Positive*
%FSLAX46Y46*%
G04 Gerber Fmt 4.6, Leading zero omitted, Abs format (unit mm)*
G04 Created by KiCad (PCBNEW 6.0.8-f2edbf62ab~116~ubuntu22.04.1) date 2022-10-12 19:37:44*
%MOMM*%
%LPD*%
G01*
G04 APERTURE LIST*
G04 Aperture macros list*
%AMRoundRect*
0 Rectangle with rounded corners*
0 $1 Rounding radius*
0 $2 $3 $4 $5 $6 $7 $8 $9 X,Y pos of 4 corners*
0 Add a 4 corners polygon primitive as box body*
4,1,4,$2,$3,$4,$5,$6,$7,$8,$9,$2,$3,0*
0 Add four circle primitives for the rounded corners*
1,1,$1+$1,$2,$3*
1,1,$1+$1,$4,$5*
1,1,$1+$1,$6,$7*
1,1,$1+$1,$8,$9*
0 Add four rect primitives between the rounded corners*
20,1,$1+$1,$2,$3,$4,$5,0*
20,1,$1+$1,$4,$5,$6,$7,0*
20,1,$1+$1,$6,$7,$8,$9,0*
20,1,$1+$1,$8,$9,$2,$3,0*%
G04 Aperture macros list end*
G04 #@! TA.AperFunction,ComponentPad*
%ADD10R,1.700000X1.700000*%
G04 #@! TD*
G04 #@! TA.AperFunction,ComponentPad*
%ADD11O,1.700000X1.700000*%
G04 #@! TD*
G04 #@! TA.AperFunction,ComponentPad*
%ADD12R,1.900000X1.900000*%
G04 #@! TD*
G04 #@! TA.AperFunction,ComponentPad*
%ADD13C,1.900000*%
G04 #@! TD*
G04 #@! TA.AperFunction,SMDPad,CuDef*
%ADD14RoundRect,0.150000X-0.825000X-0.150000X0.825000X-0.150000X0.825000X0.150000X-0.825000X0.150000X0*%
G04 #@! TD*
G04 #@! TA.AperFunction,SMDPad,CuDef*
%ADD15RoundRect,0.250000X0.262500X0.450000X-0.262500X0.450000X-0.262500X-0.450000X0.262500X-0.450000X0*%
G04 #@! TD*
G04 #@! TA.AperFunction,SMDPad,CuDef*
%ADD16RoundRect,0.250000X-0.250000X-0.475000X0.250000X-0.475000X0.250000X0.475000X-0.250000X0.475000X0*%
G04 #@! TD*
G04 #@! TA.AperFunction,SMDPad,CuDef*
%ADD17RoundRect,0.250000X0.475000X-0.250000X0.475000X0.250000X-0.475000X0.250000X-0.475000X-0.250000X0*%
G04 #@! TD*
G04 #@! TA.AperFunction,ViaPad*
%ADD18C,0.800000*%
G04 #@! TD*
G04 #@! TA.AperFunction,Conductor*
%ADD19C,0.400000*%
G04 #@! TD*
G04 #@! TA.AperFunction,Conductor*
%ADD20C,0.250000*%
G04 #@! TD*
G04 #@! TA.AperFunction,Conductor*
%ADD21C,1.200000*%
G04 #@! TD*
G04 APERTURE END LIST*
D10*
X107950000Y-68580000D03*
D11*
X110490000Y-68580000D03*
X107950000Y-71120000D03*
X110490000Y-71120000D03*
X107950000Y-73660000D03*
X110490000Y-73660000D03*
X107950000Y-76200000D03*
X110490000Y-76200000D03*
X107950000Y-78740000D03*
X110490000Y-78740000D03*
X107950000Y-81280000D03*
X110490000Y-81280000D03*
X107950000Y-83820000D03*
X110490000Y-83820000D03*
X107950000Y-86360000D03*
X110490000Y-86360000D03*
X107950000Y-88900000D03*
X110490000Y-88900000D03*
X107950000Y-91440000D03*
X110490000Y-91440000D03*
X107950000Y-93980000D03*
X110490000Y-93980000D03*
X107950000Y-96520000D03*
X110490000Y-96520000D03*
X107950000Y-99060000D03*
X110490000Y-99060000D03*
X107950000Y-101600000D03*
X110490000Y-101600000D03*
X107950000Y-104140000D03*
X110490000Y-104140000D03*
X107950000Y-106680000D03*
X110490000Y-106680000D03*
X107950000Y-109220000D03*
X110490000Y-109220000D03*
D12*
X128905000Y-100965000D03*
D13*
X126405000Y-100965000D03*
X123905000Y-100965000D03*
X121405000Y-100965000D03*
D10*
X128905000Y-95885000D03*
D11*
X126365000Y-95885000D03*
X123825000Y-95885000D03*
X121285000Y-95885000D03*
D10*
X128905000Y-98425000D03*
D11*
X126365000Y-98425000D03*
X123825000Y-98425000D03*
X121285000Y-98425000D03*
D14*
X120715000Y-85090000D03*
X120715000Y-86360000D03*
X120715000Y-87630000D03*
X120715000Y-88900000D03*
X120715000Y-90170000D03*
X120715000Y-91440000D03*
X120715000Y-92710000D03*
X125665000Y-92710000D03*
X125665000Y-91440000D03*
X125665000Y-90170000D03*
X125665000Y-88900000D03*
X125665000Y-87630000D03*
X125665000Y-86360000D03*
X125665000Y-85090000D03*
X120715000Y-74295000D03*
X120715000Y-75565000D03*
X120715000Y-76835000D03*
X120715000Y-78105000D03*
X120715000Y-79375000D03*
X120715000Y-80645000D03*
X120715000Y-81915000D03*
X120715000Y-83185000D03*
X125665000Y-83185000D03*
X125665000Y-81915000D03*
X125665000Y-80645000D03*
X125665000Y-79375000D03*
X125665000Y-78105000D03*
X125665000Y-76835000D03*
X125665000Y-75565000D03*
X125665000Y-74295000D03*
D15*
X130452500Y-89217500D03*
X128627500Y-89217500D03*
D10*
X129540000Y-68580000D03*
D11*
X129540000Y-71120000D03*
X129540000Y-73660000D03*
X129540000Y-76200000D03*
D10*
X129540000Y-80010000D03*
X129540000Y-82550000D03*
X123825000Y-71120000D03*
D11*
X121285000Y-71120000D03*
D10*
X121285000Y-68580000D03*
D11*
X123825000Y-68580000D03*
D16*
X128590000Y-93027500D03*
X130490000Y-93027500D03*
X128590000Y-85407500D03*
X130490000Y-85407500D03*
D15*
X130452500Y-87312500D03*
X128627500Y-87312500D03*
D17*
X126682500Y-69911000D03*
X126682500Y-68011000D03*
D15*
X130452500Y-91122500D03*
X128627500Y-91122500D03*
D10*
X114080225Y-68590000D03*
D11*
X116620225Y-68590000D03*
X114080225Y-71130000D03*
X116620225Y-71130000D03*
X114080225Y-73670000D03*
X116620225Y-73670000D03*
X114080225Y-76210000D03*
X116620225Y-76210000D03*
X114080225Y-78750000D03*
X116620225Y-78750000D03*
X114080225Y-81290000D03*
X116620225Y-81290000D03*
X114080225Y-83830000D03*
X116620225Y-83830000D03*
X114080225Y-86370000D03*
X116620225Y-86370000D03*
X114080225Y-88910000D03*
X116620225Y-88910000D03*
X114080225Y-91450000D03*
X116620225Y-91450000D03*
X114080225Y-93990000D03*
X116620225Y-93990000D03*
X114080225Y-96530000D03*
X116620225Y-96530000D03*
X114080225Y-99070000D03*
X116620225Y-99070000D03*
X114080225Y-101610000D03*
X116620225Y-101610000D03*
X114080225Y-104150000D03*
X116620225Y-104150000D03*
X114080225Y-106690000D03*
X116620225Y-106690000D03*
X114080225Y-109230000D03*
X116620225Y-109230000D03*
D18*
X127381000Y-92710000D03*
X126682500Y-72072500D03*
X118744998Y-84137500D03*
X125412500Y-73025000D03*
X130492500Y-94297500D03*
X130492500Y-84137500D03*
X127317500Y-75565000D03*
X122555000Y-78105000D03*
X123825000Y-81280000D03*
X123190000Y-86995000D03*
X118745000Y-88265000D03*
X123190000Y-83185000D03*
X127381000Y-90805002D03*
X122555000Y-90170000D03*
X127381000Y-89535004D03*
X127381000Y-88263765D03*
D19*
X125665000Y-85090000D02*
X128285000Y-85090000D01*
X130477500Y-89217500D02*
X130477500Y-87312500D01*
X125665000Y-79375000D02*
X127000000Y-79375000D01*
X127635000Y-78740000D02*
X127635000Y-84440000D01*
X128285000Y-85090000D02*
X128602500Y-85407500D01*
X127635000Y-84440000D02*
X128602500Y-85407500D01*
X128602500Y-85437500D02*
X130477500Y-87312500D01*
X127000000Y-79375000D02*
X127635000Y-78740000D01*
X127635000Y-78740000D02*
X130175000Y-76200000D01*
X125665000Y-74295000D02*
X126682500Y-73277500D01*
X128602500Y-95582500D02*
X128602500Y-93027500D01*
X130477500Y-91122500D02*
X130477500Y-89217500D01*
D20*
X124460000Y-74295000D02*
X125665000Y-74295000D01*
D19*
X126682500Y-72072500D02*
X126682500Y-69898500D01*
D20*
X120715000Y-76835000D02*
X119380000Y-76835000D01*
D19*
X128602500Y-93027500D02*
X128602500Y-92997500D01*
X127381000Y-92710000D02*
X128285000Y-92710000D01*
D20*
X119062500Y-75257490D02*
X119389990Y-74930000D01*
D21*
X128905000Y-100965000D02*
X128905000Y-95885000D01*
D20*
X119380000Y-76835000D02*
X119062500Y-76517500D01*
D19*
X128285000Y-92710000D02*
X128602500Y-93027500D01*
D20*
X119389990Y-74930000D02*
X123825000Y-74930000D01*
X123825000Y-74930000D02*
X124460000Y-74295000D01*
D19*
X128602500Y-92997500D02*
X130477500Y-91122500D01*
X126682500Y-73277500D02*
X126682500Y-72072500D01*
X128905000Y-95885000D02*
X128602500Y-95582500D01*
D20*
X119062500Y-76517500D02*
X119062500Y-75257490D01*
X120715000Y-83185000D02*
X119380000Y-83185000D01*
D19*
X125412500Y-69293500D02*
X125412500Y-72459315D01*
X130477500Y-85407500D02*
X130477500Y-84152500D01*
X126682500Y-68023500D02*
X125412500Y-69293500D01*
X121920000Y-74295000D02*
X123190000Y-73025000D01*
D21*
X126365000Y-95885000D02*
X126365000Y-100925000D01*
X123825000Y-95885000D02*
X123825000Y-100885000D01*
D19*
X130477500Y-84152500D02*
X130492500Y-84137500D01*
X130477500Y-93027500D02*
X130477500Y-94282500D01*
X128983500Y-68023500D02*
X129540000Y-68580000D01*
X123190000Y-73025000D02*
X125412500Y-73025000D01*
X125412500Y-72459315D02*
X125412500Y-73025000D01*
D21*
X123825000Y-100885000D02*
X123905000Y-100965000D01*
D19*
X130477500Y-94282500D02*
X130492500Y-94297500D01*
X126682500Y-68023500D02*
X128983500Y-68023500D01*
X125665000Y-75565000D02*
X127317500Y-75565000D01*
X120715000Y-74295000D02*
X121920000Y-74295000D01*
D20*
X118744998Y-83820002D02*
X118744998Y-84137500D01*
D21*
X126365000Y-100925000D02*
X126405000Y-100965000D01*
D20*
X119380000Y-83185000D02*
X118744998Y-83820002D01*
X118046500Y-77323725D02*
X118046500Y-72453500D01*
X122555000Y-69850000D02*
X123825000Y-68580000D01*
X120650000Y-69850000D02*
X122555000Y-69850000D01*
X116620225Y-78750000D02*
X118046500Y-77323725D01*
X118046500Y-72453500D02*
X120650000Y-69850000D01*
X120715000Y-78105000D02*
X122555000Y-78105000D01*
X125665000Y-80645000D02*
X124529315Y-80645000D01*
X124529315Y-80645000D02*
X122555000Y-78670685D01*
X122555000Y-78670685D02*
X122555000Y-78105000D01*
X125665000Y-78105000D02*
X122555000Y-78105000D01*
X119380000Y-78105000D02*
X120715000Y-78105000D01*
X119380000Y-80645000D02*
X119062500Y-80327500D01*
X119062500Y-80327500D02*
X119062500Y-78422500D01*
X119062500Y-78422500D02*
X119380000Y-78105000D01*
X120715000Y-80645000D02*
X119380000Y-80645000D01*
X118560011Y-79350214D02*
X117470224Y-80440001D01*
X121285000Y-71120000D02*
X118560011Y-73844989D01*
X117470224Y-80440001D02*
X116620225Y-81290000D01*
X118560011Y-73844989D02*
X118560011Y-79350214D01*
X121920000Y-79375000D02*
X120715000Y-79375000D01*
X123825000Y-81280000D02*
X121920000Y-79375000D01*
X125665000Y-81915000D02*
X124460000Y-81915000D01*
X124460000Y-81915000D02*
X123825000Y-81280000D01*
X125665000Y-92710000D02*
X124690000Y-92710000D01*
X123420000Y-91440000D02*
X121690000Y-91440000D01*
X121690000Y-91440000D02*
X120715000Y-91440000D01*
X124690000Y-92710000D02*
X123420000Y-91440000D01*
X117470224Y-108380001D02*
X116620225Y-109230000D01*
X118110000Y-107740225D02*
X117470224Y-108380001D01*
X120715000Y-91440000D02*
X119380000Y-91440000D01*
D19*
X111760000Y-110490000D02*
X110490000Y-109220000D01*
X115360225Y-110490000D02*
X111760000Y-110490000D01*
D20*
X118110000Y-92710000D02*
X118110000Y-107740225D01*
X119380000Y-91440000D02*
X118110000Y-92710000D01*
D19*
X116620225Y-109230000D02*
X115360225Y-110490000D01*
X115370224Y-107940001D02*
X111750001Y-107940001D01*
X116620225Y-106690000D02*
X115370224Y-107940001D01*
X111339999Y-107529999D02*
X110490000Y-106680000D01*
X111750001Y-107940001D02*
X111339999Y-107529999D01*
X115360225Y-105410000D02*
X111760000Y-105410000D01*
X111760000Y-105410000D02*
X110490000Y-104140000D01*
X116620225Y-104150000D02*
X115360225Y-105410000D01*
X115360225Y-102870000D02*
X111760000Y-102870000D01*
X116620225Y-101610000D02*
X115360225Y-102870000D01*
X111760000Y-102870000D02*
X110490000Y-101600000D01*
X116620225Y-99070000D02*
X115360225Y-100330000D01*
X111760000Y-100330000D02*
X110490000Y-99060000D01*
X115360225Y-100330000D02*
X111760000Y-100330000D01*
X111760000Y-97790000D02*
X110490000Y-96520000D01*
X116620225Y-96530000D02*
X115360225Y-97790000D01*
X115360225Y-97790000D02*
X111760000Y-97790000D01*
X110490000Y-93980000D02*
X111760000Y-95250000D01*
X111760000Y-95250000D02*
X115360225Y-95250000D01*
X115360225Y-95250000D02*
X116620225Y-93990000D01*
X115360225Y-92710000D02*
X116620225Y-91450000D01*
X110490000Y-91440000D02*
X111760000Y-92710000D01*
X111760000Y-92710000D02*
X115360225Y-92710000D01*
X110490000Y-88900000D02*
X111760000Y-90170000D01*
X111760000Y-90170000D02*
X115360225Y-90170000D01*
X115360225Y-90170000D02*
X116620225Y-88910000D01*
X115360225Y-77470000D02*
X111760000Y-77470000D01*
X111760000Y-77470000D02*
X110490000Y-76200000D01*
X116620225Y-76210000D02*
X115360225Y-77470000D01*
X111760000Y-72390000D02*
X110490000Y-71120000D01*
X115360225Y-72390000D02*
X111760000Y-72390000D01*
X116620225Y-71130000D02*
X115360225Y-72390000D01*
X111760000Y-69850000D02*
X115360225Y-69850000D01*
X115360225Y-69850000D02*
X116620225Y-68590000D01*
X110490000Y-68580000D02*
X111760000Y-69850000D01*
D20*
X123507500Y-87312500D02*
X123190000Y-86995000D01*
X111760000Y-85090000D02*
X117798232Y-85090000D01*
X123507500Y-90487500D02*
X123507500Y-87312500D01*
X125665000Y-91440000D02*
X124460000Y-91440000D01*
X119703232Y-86995000D02*
X123009998Y-86995000D01*
X117798232Y-85090000D02*
X119703232Y-86995000D01*
X124460000Y-91440000D02*
X123507500Y-90487500D01*
X123009998Y-86995000D02*
X123190000Y-86995000D01*
X110490000Y-83820000D02*
X111760000Y-85090000D01*
X120715000Y-88900000D02*
X119380000Y-88900000D01*
X118345001Y-87865001D02*
X118745000Y-88265000D01*
X118110000Y-87630000D02*
X118345001Y-87865001D01*
X111760000Y-87630000D02*
X118110000Y-87630000D01*
X110490000Y-86360000D02*
X111760000Y-87630000D01*
X119380000Y-88900000D02*
X118745000Y-88265000D01*
X120715000Y-85090000D02*
X121920000Y-85090000D01*
X122237500Y-86042500D02*
X122237500Y-85407500D01*
X119380000Y-81915000D02*
X120715000Y-81915000D01*
X110490000Y-78740000D02*
X111760000Y-80010000D01*
X111760000Y-80708777D02*
X113601223Y-82550000D01*
X120715000Y-86360000D02*
X121920000Y-86360000D01*
X111760000Y-80010000D02*
X111760000Y-80708777D01*
X122237500Y-84772500D02*
X121920000Y-85090000D01*
X113601223Y-82550000D02*
X118745000Y-82550000D01*
X118745000Y-82550000D02*
X119380000Y-81915000D01*
X122237500Y-85407500D02*
X121920000Y-85090000D01*
X121920000Y-86360000D02*
X122237500Y-86042500D01*
X120715000Y-81915000D02*
X121920000Y-81915000D01*
X122237500Y-82232500D02*
X122237500Y-84772500D01*
X121920000Y-81915000D02*
X122237500Y-82232500D01*
X125665000Y-87630000D02*
X125665000Y-87330000D01*
X123190000Y-85090000D02*
X123190000Y-83750685D01*
X123190000Y-83750685D02*
X123190000Y-83185000D01*
X125665000Y-86360000D02*
X124460000Y-86360000D01*
X125665000Y-87330000D02*
X125665000Y-86360000D01*
X125665000Y-83185000D02*
X123190000Y-83185000D01*
X124460000Y-86360000D02*
X123190000Y-85090000D01*
X128602500Y-91122500D02*
X127698498Y-91122500D01*
X127698498Y-91122500D02*
X127381000Y-90805002D01*
X128270000Y-72390000D02*
X129540000Y-71120000D01*
X124653232Y-74930000D02*
X126873000Y-74930000D01*
X124018232Y-75565000D02*
X124653232Y-74930000D01*
X126873000Y-74930000D02*
X128270000Y-73533000D01*
X128270000Y-73533000D02*
X128270000Y-72390000D01*
X120715000Y-75565000D02*
X124018232Y-75565000D01*
X127120504Y-76835000D02*
X126640000Y-76835000D01*
X128270000Y-75685504D02*
X127120504Y-76835000D01*
X128270000Y-74930000D02*
X128270000Y-75685504D01*
X129540000Y-73660000D02*
X128270000Y-74930000D01*
X126640000Y-76835000D02*
X125665000Y-76835000D01*
X120715000Y-90170000D02*
X122555000Y-90170000D01*
X120715000Y-87630000D02*
X121920000Y-87630000D01*
X122555000Y-88265000D02*
X122555000Y-90170000D01*
X127698504Y-89217500D02*
X127381000Y-89535004D01*
X128602500Y-89217500D02*
X127698504Y-89217500D01*
X121920000Y-87630000D02*
X122555000Y-88265000D01*
X125665000Y-88900000D02*
X126744765Y-88900000D01*
X124460000Y-90170000D02*
X125665000Y-90170000D01*
X124142500Y-89852500D02*
X124460000Y-90170000D01*
X128602500Y-87312500D02*
X128332265Y-87312500D01*
X124460000Y-88900000D02*
X124142500Y-89217500D01*
X126744765Y-88900000D02*
X127381000Y-88263765D01*
X125665000Y-88900000D02*
X124460000Y-88900000D01*
X124142500Y-89217500D02*
X124142500Y-89852500D01*
X128332265Y-87312500D02*
X127381000Y-88263765D01*
D21*
X121285000Y-95885000D02*
X121285000Y-100845000D01*
X121285000Y-100845000D02*
X121405000Y-100965000D01*
G04 #@! TA.AperFunction,Conductor*
G36*
X123173527Y-92093502D02*
G01*
X123194501Y-92110405D01*
X124186343Y-93102247D01*
X124193887Y-93110537D01*
X124198000Y-93117018D01*
X124203777Y-93122443D01*
X124247667Y-93163658D01*
X124250509Y-93166413D01*
X124253118Y-93169022D01*
X124272476Y-93193978D01*
X124311331Y-93259678D01*
X124315547Y-93266807D01*
X124433193Y-93384453D01*
X124440017Y-93388489D01*
X124440020Y-93388491D01*
X124537417Y-93446091D01*
X124576399Y-93469145D01*
X124584010Y-93471356D01*
X124584012Y-93471357D01*
X124636231Y-93486528D01*
X124736169Y-93515562D01*
X124742574Y-93516066D01*
X124742579Y-93516067D01*
X124771042Y-93518307D01*
X124771050Y-93518307D01*
X124773498Y-93518500D01*
X126556502Y-93518500D01*
X126558950Y-93518307D01*
X126558958Y-93518307D01*
X126587421Y-93516067D01*
X126587426Y-93516066D01*
X126593831Y-93515562D01*
X126674389Y-93492158D01*
X126745989Y-93471357D01*
X126745993Y-93471355D01*
X126753601Y-93469145D01*
X126760423Y-93465110D01*
X126766076Y-93462664D01*
X126836538Y-93453967D01*
X126890177Y-93476364D01*
X126924248Y-93501118D01*
X126930276Y-93503802D01*
X126930278Y-93503803D01*
X127092681Y-93576109D01*
X127098712Y-93578794D01*
X127192113Y-93598647D01*
X127279056Y-93617128D01*
X127279061Y-93617128D01*
X127285513Y-93618500D01*
X127476487Y-93618500D01*
X127476947Y-93618402D01*
X127544549Y-93630763D01*
X127596396Y-93679264D01*
X127607407Y-93703426D01*
X127614461Y-93724570D01*
X127648450Y-93826446D01*
X127741522Y-93976848D01*
X127746704Y-93982021D01*
X127857018Y-94092143D01*
X127891097Y-94154426D01*
X127894000Y-94181316D01*
X127894000Y-94464928D01*
X127873998Y-94533049D01*
X127824185Y-94576212D01*
X127824574Y-94576923D01*
X127821289Y-94578722D01*
X127820342Y-94579542D01*
X127818059Y-94580490D01*
X127816699Y-94581235D01*
X127808295Y-94584385D01*
X127801116Y-94589765D01*
X127801113Y-94589767D01*
X127728568Y-94644137D01*
X127691739Y-94671739D01*
X127604385Y-94788295D01*
X127601233Y-94796703D01*
X127601232Y-94796705D01*
X127559722Y-94907433D01*
X127517081Y-94964198D01*
X127450519Y-94988898D01*
X127381170Y-94973691D01*
X127348546Y-94948004D01*
X127297799Y-94892234D01*
X127290273Y-94885215D01*
X127123139Y-94753222D01*
X127114552Y-94747517D01*
X126928117Y-94644599D01*
X126918705Y-94640369D01*
X126717959Y-94569280D01*
X126707988Y-94566646D01*
X126636837Y-94553972D01*
X126623540Y-94555432D01*
X126619000Y-94569989D01*
X126619000Y-98553000D01*
X126598998Y-98621121D01*
X126545342Y-98667614D01*
X126493000Y-98679000D01*
X123697000Y-98679000D01*
X123628879Y-98658998D01*
X123582386Y-98605342D01*
X123571000Y-98553000D01*
X123571000Y-98152885D01*
X124079000Y-98152885D01*
X124083475Y-98168124D01*
X124084865Y-98169329D01*
X124092548Y-98171000D01*
X126092885Y-98171000D01*
X126108124Y-98166525D01*
X126109329Y-98165135D01*
X126111000Y-98157452D01*
X126111000Y-96157115D01*
X126106525Y-96141876D01*
X126105135Y-96140671D01*
X126097452Y-96139000D01*
X124097115Y-96139000D01*
X124081876Y-96143475D01*
X124080671Y-96144865D01*
X124079000Y-96152548D01*
X124079000Y-98152885D01*
X123571000Y-98152885D01*
X123571000Y-95612885D01*
X124079000Y-95612885D01*
X124083475Y-95628124D01*
X124084865Y-95629329D01*
X124092548Y-95631000D01*
X126092885Y-95631000D01*
X126108124Y-95626525D01*
X126109329Y-95625135D01*
X126111000Y-95617452D01*
X126111000Y-94568102D01*
X126107082Y-94554758D01*
X126092806Y-94552771D01*
X126054324Y-94558660D01*
X126044288Y-94561051D01*
X125841868Y-94627212D01*
X125832359Y-94631209D01*
X125643463Y-94729542D01*
X125634738Y-94735036D01*
X125464433Y-94862905D01*
X125456726Y-94869748D01*
X125309590Y-95023717D01*
X125303104Y-95031727D01*
X125198193Y-95185521D01*
X125143282Y-95230524D01*
X125072757Y-95238695D01*
X125009010Y-95207441D01*
X124988313Y-95182957D01*
X124907427Y-95057926D01*
X124901136Y-95049757D01*
X124757806Y-94892240D01*
X124750273Y-94885215D01*
X124583139Y-94753222D01*
X124574552Y-94747517D01*
X124388117Y-94644599D01*
X124378705Y-94640369D01*
X124177959Y-94569280D01*
X124167988Y-94566646D01*
X124096837Y-94553972D01*
X124083540Y-94555432D01*
X124079000Y-94569989D01*
X124079000Y-95612885D01*
X123571000Y-95612885D01*
X123571000Y-94568102D01*
X123567082Y-94554758D01*
X123552806Y-94552771D01*
X123514324Y-94558660D01*
X123504288Y-94561051D01*
X123301868Y-94627212D01*
X123292359Y-94631209D01*
X123103463Y-94729542D01*
X123094738Y-94735036D01*
X122924433Y-94862905D01*
X122916726Y-94869748D01*
X122769590Y-95023717D01*
X122763109Y-95031722D01*
X122658498Y-95185074D01*
X122603587Y-95230076D01*
X122533062Y-95238247D01*
X122469315Y-95206993D01*
X122448618Y-95182509D01*
X122367822Y-95057617D01*
X122367820Y-95057614D01*
X122365014Y-95053277D01*
X122214670Y-94888051D01*
X122210619Y-94884852D01*
X122210615Y-94884848D01*
X122043414Y-94752800D01*
X122043410Y-94752798D01*
X122039359Y-94749598D01*
X122003028Y-94729542D01*
X121987136Y-94720769D01*
X121843789Y-94641638D01*
X121838920Y-94639914D01*
X121838916Y-94639912D01*
X121638087Y-94568795D01*
X121638083Y-94568794D01*
X121633212Y-94567069D01*
X121628119Y-94566162D01*
X121628116Y-94566161D01*
X121418373Y-94528800D01*
X121418367Y-94528799D01*
X121413284Y-94527894D01*
X121339452Y-94526992D01*
X121195081Y-94525228D01*
X121195079Y-94525228D01*
X121189911Y-94525165D01*
X120969091Y-94558955D01*
X120756756Y-94628357D01*
X120558607Y-94731507D01*
X120554474Y-94734610D01*
X120554471Y-94734612D01*
X120384100Y-94862530D01*
X120379965Y-94865635D01*
X120225629Y-95027138D01*
X120222715Y-95031410D01*
X120222714Y-95031411D01*
X120211401Y-95047996D01*
X120099743Y-95211680D01*
X120064949Y-95286638D01*
X120014836Y-95394598D01*
X120005688Y-95414305D01*
X119945989Y-95629570D01*
X119922251Y-95851695D01*
X119922548Y-95856848D01*
X119922548Y-95856851D01*
X119930000Y-95986091D01*
X119935110Y-96074715D01*
X119936247Y-96079761D01*
X119936248Y-96079767D01*
X119950606Y-96143475D01*
X119984222Y-96292639D01*
X120068266Y-96499616D01*
X120124580Y-96591511D01*
X120157933Y-96645939D01*
X120176500Y-96711774D01*
X120176500Y-97600274D01*
X120154589Y-97671278D01*
X120099743Y-97751680D01*
X120097570Y-97756362D01*
X120097568Y-97756365D01*
X120014836Y-97934598D01*
X120005688Y-97954305D01*
X119945989Y-98169570D01*
X119922251Y-98391695D01*
X119922548Y-98396848D01*
X119922548Y-98396851D01*
X119930000Y-98526091D01*
X119935110Y-98614715D01*
X119936247Y-98619761D01*
X119936248Y-98619767D01*
X119947031Y-98667614D01*
X119984222Y-98832639D01*
X120068266Y-99039616D01*
X120124580Y-99131511D01*
X120157933Y-99185939D01*
X120176500Y-99251774D01*
X120176500Y-100138726D01*
X120154588Y-100209730D01*
X120132495Y-100242117D01*
X120086225Y-100341797D01*
X120037620Y-100446507D01*
X120031516Y-100459656D01*
X119967424Y-100690768D01*
X119941938Y-100929244D01*
X119942235Y-100934396D01*
X119942235Y-100934400D01*
X119944552Y-100974580D01*
X119955744Y-101168680D01*
X119956879Y-101173717D01*
X119956880Y-101173723D01*
X119962390Y-101198173D01*
X120008470Y-101402646D01*
X120098702Y-101624859D01*
X120224014Y-101829351D01*
X120381043Y-102010630D01*
X120565571Y-102163828D01*
X120772643Y-102284831D01*
X120996697Y-102370389D01*
X121001763Y-102371420D01*
X121001764Y-102371420D01*
X121058039Y-102382869D01*
X121231716Y-102418204D01*
X121366089Y-102423131D01*
X121466225Y-102426803D01*
X121466229Y-102426803D01*
X121471389Y-102426992D01*
X121476509Y-102426336D01*
X121476511Y-102426336D01*
X121704151Y-102397175D01*
X121704152Y-102397175D01*
X121709279Y-102396518D01*
X121792935Y-102371420D01*
X121934042Y-102329086D01*
X121934047Y-102329084D01*
X121938997Y-102327599D01*
X122154374Y-102222087D01*
X122158579Y-102219087D01*
X122158585Y-102219084D01*
X122235950Y-102163900D01*
X123071358Y-102163900D01*
X123074661Y-102168560D01*
X123268399Y-102281771D01*
X123277686Y-102286221D01*
X123492006Y-102368062D01*
X123501908Y-102370939D01*
X123726699Y-102416673D01*
X123736951Y-102417896D01*
X123966202Y-102426302D01*
X123976488Y-102425835D01*
X124204043Y-102396684D01*
X124214129Y-102394541D01*
X124433864Y-102328617D01*
X124443459Y-102324856D01*
X124649466Y-102223935D01*
X124658332Y-102218650D01*
X124725945Y-102170421D01*
X124734346Y-102159721D01*
X124727358Y-102146568D01*
X123917812Y-101337022D01*
X123903868Y-101329408D01*
X123902035Y-101329539D01*
X123895420Y-101333790D01*
X123078635Y-102150575D01*
X123071358Y-102163900D01*
X122235950Y-102163900D01*
X122267356Y-102141498D01*
X122349627Y-102082815D01*
X122519511Y-101913523D01*
X122537802Y-101888069D01*
X122568457Y-101845407D01*
X122624452Y-101801759D01*
X122691378Y-101794628D01*
X122707557Y-101797309D01*
X122717970Y-101792820D01*
X123532978Y-100977812D01*
X123539356Y-100966132D01*
X124269408Y-100966132D01*
X124269539Y-100967965D01*
X124273790Y-100974580D01*
X125087130Y-101787920D01*
X125101074Y-101795534D01*
X125125569Y-101793782D01*
X125140515Y-101788041D01*
X125173496Y-101794879D01*
X125174015Y-101791750D01*
X125207557Y-101797308D01*
X125217970Y-101792820D01*
X126032978Y-100977812D01*
X126040592Y-100963868D01*
X126040461Y-100962035D01*
X126036210Y-100955420D01*
X125222884Y-100142094D01*
X125208940Y-100134480D01*
X125187943Y-100135981D01*
X125169097Y-100143486D01*
X125135234Y-100136896D01*
X125134985Y-100138666D01*
X125101317Y-100133929D01*
X125090132Y-100139078D01*
X124277022Y-100952188D01*
X124269408Y-100966132D01*
X123539356Y-100966132D01*
X123540592Y-100963868D01*
X123540461Y-100962035D01*
X123536210Y-100955420D01*
X122722884Y-100142094D01*
X122708940Y-100134480D01*
X122683816Y-100136277D01*
X122614442Y-100121186D01*
X122570545Y-100080441D01*
X122570479Y-100080492D01*
X122570177Y-100080100D01*
X122569035Y-100079040D01*
X122567323Y-100076394D01*
X122564515Y-100072053D01*
X122426307Y-99920164D01*
X122395255Y-99856319D01*
X122393500Y-99835365D01*
X122393500Y-99251087D01*
X122417177Y-99177561D01*
X122453453Y-99127077D01*
X122454640Y-99127930D01*
X122501960Y-99084362D01*
X122571897Y-99072145D01*
X122637338Y-99099678D01*
X122665166Y-99131511D01*
X122722694Y-99225388D01*
X122728777Y-99233699D01*
X122868213Y-99394667D01*
X122875580Y-99401883D01*
X123039434Y-99537916D01*
X123047885Y-99543834D01*
X123064941Y-99553801D01*
X123113664Y-99605440D01*
X123126735Y-99675223D01*
X123100003Y-99740994D01*
X123087011Y-99753632D01*
X123074795Y-99769999D01*
X123081540Y-99782330D01*
X123892188Y-100592978D01*
X123906132Y-100600592D01*
X123907965Y-100600461D01*
X123914580Y-100596210D01*
X124729590Y-99781200D01*
X124736611Y-99768343D01*
X124728838Y-99757676D01*
X124718667Y-99749643D01*
X124710088Y-99743943D01*
X124662298Y-99717562D01*
X124612327Y-99667129D01*
X124597555Y-99597687D01*
X124622671Y-99531281D01*
X124650022Y-99504675D01*
X124700325Y-99468794D01*
X124708200Y-99462139D01*
X124859052Y-99311812D01*
X124865730Y-99303965D01*
X124993022Y-99126819D01*
X124994147Y-99127627D01*
X125041669Y-99083876D01*
X125111607Y-99071661D01*
X125177046Y-99099197D01*
X125204870Y-99131028D01*
X125262690Y-99225383D01*
X125268777Y-99233699D01*
X125408213Y-99394667D01*
X125415580Y-99401883D01*
X125579435Y-99537917D01*
X125591227Y-99546175D01*
X125635554Y-99601634D01*
X125642860Y-99672254D01*
X125610827Y-99735613D01*
X125594606Y-99750146D01*
X125583248Y-99758674D01*
X125574795Y-99769999D01*
X125581540Y-99782330D01*
X126675115Y-100875905D01*
X126709141Y-100938217D01*
X126704076Y-101009032D01*
X126675115Y-101054095D01*
X125578635Y-102150575D01*
X125571358Y-102163900D01*
X125574661Y-102168560D01*
X125768399Y-102281771D01*
X125777686Y-102286221D01*
X125992006Y-102368062D01*
X126001908Y-102370939D01*
X126226699Y-102416673D01*
X126236951Y-102417896D01*
X126466202Y-102426302D01*
X126476488Y-102425835D01*
X126704043Y-102396684D01*
X126714129Y-102394541D01*
X126933864Y-102328617D01*
X126943459Y-102324856D01*
X127149468Y-102223933D01*
X127158326Y-102218654D01*
X127315125Y-102106810D01*
X127382199Y-102083537D01*
X127451207Y-102100220D01*
X127498813Y-102148879D01*
X127501235Y-102153303D01*
X127504385Y-102161705D01*
X127591739Y-102278261D01*
X127708295Y-102365615D01*
X127844684Y-102416745D01*
X127906866Y-102423500D01*
X129903134Y-102423500D01*
X129965316Y-102416745D01*
X130101705Y-102365615D01*
X130218261Y-102278261D01*
X130305615Y-102161705D01*
X130356745Y-102025316D01*
X130363500Y-101963134D01*
X130363500Y-99966866D01*
X130356745Y-99904684D01*
X130305615Y-99768295D01*
X130218261Y-99651739D01*
X130221115Y-99649600D01*
X130195258Y-99602249D01*
X130200323Y-99531434D01*
X130203453Y-99524589D01*
X130205615Y-99521705D01*
X130256745Y-99385316D01*
X130262974Y-99327973D01*
X130263131Y-99326531D01*
X130263500Y-99323134D01*
X130263500Y-97526866D01*
X130256745Y-97464684D01*
X130205615Y-97328295D01*
X130132370Y-97230564D01*
X130107522Y-97164059D01*
X130122575Y-97094676D01*
X130132370Y-97079435D01*
X130150082Y-97055802D01*
X130205615Y-96981705D01*
X130256745Y-96845316D01*
X130262974Y-96787973D01*
X130263131Y-96786531D01*
X130263500Y-96783134D01*
X130263500Y-94986866D01*
X130256745Y-94924684D01*
X130205615Y-94788295D01*
X130118261Y-94671739D01*
X130001705Y-94584385D01*
X129865316Y-94533255D01*
X129803134Y-94526500D01*
X129437000Y-94526500D01*
X129368879Y-94506498D01*
X129322386Y-94452842D01*
X129311000Y-94400500D01*
X129311000Y-94156459D01*
X129331002Y-94088338D01*
X129347827Y-94067441D01*
X129434131Y-93980986D01*
X129439305Y-93975803D01*
X129442102Y-93971265D01*
X129499353Y-93930676D01*
X129570276Y-93927446D01*
X129631687Y-93963072D01*
X129639062Y-93971568D01*
X129647098Y-93981707D01*
X129761829Y-94096239D01*
X129773240Y-94105251D01*
X129911243Y-94190316D01*
X129924424Y-94196463D01*
X130078710Y-94247638D01*
X130092086Y-94250505D01*
X130186438Y-94260172D01*
X130192854Y-94260500D01*
X130217885Y-94260500D01*
X130233124Y-94256025D01*
X130234329Y-94254635D01*
X130236000Y-94246952D01*
X130236000Y-92899500D01*
X130256002Y-92831379D01*
X130309658Y-92784886D01*
X130362000Y-92773500D01*
X130618000Y-92773500D01*
X130686121Y-92793502D01*
X130732614Y-92847158D01*
X130744000Y-92899500D01*
X130744000Y-94242384D01*
X130748475Y-94257623D01*
X130749865Y-94258828D01*
X130757548Y-94260499D01*
X130787095Y-94260499D01*
X130793607Y-94260162D01*
X130797502Y-94259758D01*
X130867322Y-94272626D01*
X130919102Y-94321199D01*
X130936500Y-94385086D01*
X130936500Y-110490500D01*
X130916498Y-110558621D01*
X130862842Y-110605114D01*
X130810500Y-110616500D01*
X117409577Y-110616500D01*
X117341456Y-110596498D01*
X117294963Y-110542842D01*
X117284859Y-110472568D01*
X117314353Y-110407988D01*
X117336409Y-110387921D01*
X117408314Y-110336632D01*
X117500085Y-110271173D01*
X117658321Y-110113489D01*
X117668758Y-110098965D01*
X117785660Y-109936277D01*
X117788678Y-109932077D01*
X117793302Y-109922722D01*
X117885361Y-109736453D01*
X117885362Y-109736451D01*
X117887655Y-109731811D01*
X117952595Y-109518069D01*
X117981754Y-109296590D01*
X117983381Y-109230000D01*
X117965077Y-109007361D01*
X117937046Y-108895766D01*
X117939850Y-108824825D01*
X117970155Y-108775974D01*
X118228628Y-108517502D01*
X118502258Y-108243872D01*
X118510537Y-108236338D01*
X118517018Y-108232225D01*
X118563644Y-108182573D01*
X118566398Y-108179732D01*
X118586135Y-108159995D01*
X118588615Y-108156798D01*
X118596320Y-108147776D01*
X118621159Y-108121325D01*
X118626586Y-108115546D01*
X118630405Y-108108600D01*
X118630407Y-108108597D01*
X118636348Y-108097791D01*
X118647199Y-108081272D01*
X118654758Y-108071526D01*
X118659614Y-108065266D01*
X118662759Y-108057997D01*
X118662762Y-108057993D01*
X118677174Y-108024688D01*
X118682391Y-108014038D01*
X118703695Y-107975285D01*
X118708733Y-107955662D01*
X118715137Y-107936959D01*
X118720033Y-107925645D01*
X118720033Y-107925644D01*
X118723181Y-107918370D01*
X118724420Y-107910547D01*
X118724423Y-107910537D01*
X118730099Y-107874701D01*
X118732505Y-107863081D01*
X118741528Y-107827936D01*
X118741528Y-107827935D01*
X118743500Y-107820255D01*
X118743500Y-107800001D01*
X118745051Y-107780290D01*
X118746980Y-107768111D01*
X118748220Y-107760282D01*
X118744059Y-107716263D01*
X118743500Y-107704406D01*
X118743500Y-93024594D01*
X118757806Y-92975871D01*
X119238456Y-92975871D01*
X119279107Y-93115790D01*
X119285352Y-93130221D01*
X119361911Y-93259678D01*
X119371551Y-93272104D01*
X119477896Y-93378449D01*
X119490322Y-93388089D01*
X119619779Y-93464648D01*
X119634210Y-93470893D01*
X119780065Y-93513269D01*
X119792667Y-93515570D01*
X119821084Y-93517807D01*
X119826014Y-93518000D01*
X120442885Y-93518000D01*
X120458124Y-93513525D01*
X120459329Y-93512135D01*
X120461000Y-93504452D01*
X120461000Y-93499884D01*
X120969000Y-93499884D01*
X120973475Y-93515123D01*
X120974865Y-93516328D01*
X120982548Y-93517999D01*
X121603984Y-93517999D01*
X121608920Y-93517805D01*
X121637336Y-93515570D01*
X121649931Y-93513270D01*
X121795790Y-93470893D01*
X121810221Y-93464648D01*
X121939678Y-93388089D01*
X121952104Y-93378449D01*
X122058449Y-93272104D01*
X122068089Y-93259678D01*
X122144648Y-93130221D01*
X122150893Y-93115790D01*
X122189939Y-92981395D01*
X122189899Y-92967294D01*
X122182630Y-92964000D01*
X120987115Y-92964000D01*
X120971876Y-92968475D01*
X120970671Y-92969865D01*
X120969000Y-92977548D01*
X120969000Y-93499884D01*
X120461000Y-93499884D01*
X120461000Y-92982115D01*
X120456525Y-92966876D01*
X120455135Y-92965671D01*
X120447452Y-92964000D01*
X119253122Y-92964000D01*
X119239591Y-92967973D01*
X119238456Y-92975871D01*
X118757806Y-92975871D01*
X118763502Y-92956473D01*
X118780405Y-92935499D01*
X119222999Y-92492905D01*
X119285311Y-92458879D01*
X119312094Y-92456000D01*
X122176878Y-92456000D01*
X122190409Y-92452027D01*
X122191544Y-92444129D01*
X122150893Y-92304210D01*
X122144648Y-92289779D01*
X122129189Y-92263639D01*
X122111730Y-92194823D01*
X122134247Y-92127491D01*
X122189591Y-92083022D01*
X122237643Y-92073500D01*
X123105406Y-92073500D01*
X123173527Y-92093502D01*
G37*
G04 #@! TD.AperFunction*
G04 #@! TA.AperFunction,Conductor*
G36*
X112734584Y-108668503D02*
G01*
X112781077Y-108722159D01*
X112791181Y-108792433D01*
X112787880Y-108808174D01*
X112744614Y-108964184D01*
X112746137Y-108972607D01*
X112758517Y-108976000D01*
X113808110Y-108976000D01*
X113823349Y-108971525D01*
X113824554Y-108970135D01*
X113826225Y-108962452D01*
X113826225Y-108774501D01*
X113846227Y-108706380D01*
X113899883Y-108659887D01*
X113952225Y-108648501D01*
X114208225Y-108648501D01*
X114276346Y-108668503D01*
X114322839Y-108722159D01*
X114334225Y-108774501D01*
X114334225Y-109358000D01*
X114314223Y-109426121D01*
X114260567Y-109472614D01*
X114208225Y-109484000D01*
X112763450Y-109484000D01*
X112749919Y-109487973D01*
X112748482Y-109497966D01*
X112777742Y-109627799D01*
X112773206Y-109698651D01*
X112731084Y-109755802D01*
X112664751Y-109781108D01*
X112654825Y-109781500D01*
X112105660Y-109781500D01*
X112037539Y-109761498D01*
X112016565Y-109744595D01*
X111861383Y-109589413D01*
X111827357Y-109527101D01*
X111825556Y-109483871D01*
X111843444Y-109348000D01*
X111851529Y-109286590D01*
X111851611Y-109283240D01*
X111853074Y-109223365D01*
X111853074Y-109223361D01*
X111853156Y-109220000D01*
X111834852Y-108997361D01*
X111833591Y-108992339D01*
X111786584Y-108805196D01*
X111789388Y-108734255D01*
X111830101Y-108676092D01*
X111895797Y-108649173D01*
X111908788Y-108648501D01*
X112666463Y-108648501D01*
X112734584Y-108668503D01*
G37*
G04 #@! TD.AperFunction*
G04 #@! TA.AperFunction,Conductor*
G36*
X108146121Y-68346002D02*
G01*
X108192614Y-68399658D01*
X108204000Y-68452000D01*
X108204000Y-109348000D01*
X108183998Y-109416121D01*
X108130342Y-109462614D01*
X108078000Y-109474000D01*
X107822000Y-109474000D01*
X107753879Y-109453998D01*
X107707386Y-109400342D01*
X107696000Y-109348000D01*
X107696000Y-68452000D01*
X107716002Y-68383879D01*
X107769658Y-68337386D01*
X107822000Y-68326000D01*
X108078000Y-68326000D01*
X108146121Y-68346002D01*
G37*
G04 #@! TD.AperFunction*
G04 #@! TA.AperFunction,Conductor*
G36*
X112731811Y-106138502D02*
G01*
X112778304Y-106192158D01*
X112788408Y-106262432D01*
X112785107Y-106278173D01*
X112744614Y-106424184D01*
X112746137Y-106432607D01*
X112758517Y-106436000D01*
X113808110Y-106436000D01*
X113823349Y-106431525D01*
X113824554Y-106430135D01*
X113826225Y-106422452D01*
X113826225Y-106244500D01*
X113846227Y-106176379D01*
X113899883Y-106129886D01*
X113952225Y-106118500D01*
X114208225Y-106118500D01*
X114276346Y-106138502D01*
X114322839Y-106192158D01*
X114334225Y-106244500D01*
X114334225Y-107105501D01*
X114314223Y-107173622D01*
X114260567Y-107220115D01*
X114208225Y-107231501D01*
X113952225Y-107231501D01*
X113884104Y-107211499D01*
X113837611Y-107157843D01*
X113826225Y-107105501D01*
X113826225Y-106962115D01*
X113821750Y-106946876D01*
X113820360Y-106945671D01*
X113812677Y-106944000D01*
X112763450Y-106944000D01*
X112749919Y-106947973D01*
X112748482Y-106957966D01*
X112775489Y-107077800D01*
X112770953Y-107148651D01*
X112728832Y-107205803D01*
X112662498Y-107231109D01*
X112652572Y-107231501D01*
X112095661Y-107231501D01*
X112027540Y-107211499D01*
X112006566Y-107194596D01*
X111861383Y-107049413D01*
X111827357Y-106987101D01*
X111825556Y-106943871D01*
X111851092Y-106749908D01*
X111851529Y-106746590D01*
X111853156Y-106680000D01*
X111834852Y-106457361D01*
X111789095Y-106275195D01*
X111791899Y-106204254D01*
X111832612Y-106146091D01*
X111898307Y-106119172D01*
X111911299Y-106118500D01*
X112663690Y-106118500D01*
X112731811Y-106138502D01*
G37*
G04 #@! TD.AperFunction*
G04 #@! TA.AperFunction,Conductor*
G36*
X112731811Y-103598502D02*
G01*
X112778304Y-103652158D01*
X112788408Y-103722432D01*
X112785107Y-103738173D01*
X112744614Y-103884184D01*
X112746137Y-103892607D01*
X112758517Y-103896000D01*
X113808110Y-103896000D01*
X113823349Y-103891525D01*
X113824554Y-103890135D01*
X113826225Y-103882452D01*
X113826225Y-103704500D01*
X113846227Y-103636379D01*
X113899883Y-103589886D01*
X113952225Y-103578500D01*
X114208225Y-103578500D01*
X114276346Y-103598502D01*
X114322839Y-103652158D01*
X114334225Y-103704500D01*
X114334225Y-104575500D01*
X114314223Y-104643621D01*
X114260567Y-104690114D01*
X114208225Y-104701500D01*
X113952225Y-104701500D01*
X113884104Y-104681498D01*
X113837611Y-104627842D01*
X113826225Y-104575500D01*
X113826225Y-104422115D01*
X113821750Y-104406876D01*
X113820360Y-104405671D01*
X113812677Y-104404000D01*
X112763450Y-104404000D01*
X112749919Y-104407973D01*
X112748482Y-104417966D01*
X112777742Y-104547799D01*
X112773206Y-104618651D01*
X112731084Y-104675802D01*
X112664751Y-104701108D01*
X112654825Y-104701500D01*
X112105660Y-104701500D01*
X112037539Y-104681498D01*
X112016565Y-104664595D01*
X111861383Y-104509413D01*
X111827357Y-104447101D01*
X111825556Y-104403871D01*
X111851092Y-104209908D01*
X111851529Y-104206590D01*
X111853156Y-104140000D01*
X111834852Y-103917361D01*
X111789095Y-103735195D01*
X111791899Y-103664254D01*
X111832612Y-103606091D01*
X111898307Y-103579172D01*
X111911299Y-103578500D01*
X112663690Y-103578500D01*
X112731811Y-103598502D01*
G37*
G04 #@! TD.AperFunction*
G04 #@! TA.AperFunction,Conductor*
G36*
X112731811Y-101058502D02*
G01*
X112778304Y-101112158D01*
X112788408Y-101182432D01*
X112785107Y-101198173D01*
X112744614Y-101344184D01*
X112746137Y-101352607D01*
X112758517Y-101356000D01*
X113808110Y-101356000D01*
X113823349Y-101351525D01*
X113824554Y-101350135D01*
X113826225Y-101342452D01*
X113826225Y-101164500D01*
X113846227Y-101096379D01*
X113899883Y-101049886D01*
X113952225Y-101038500D01*
X114208225Y-101038500D01*
X114276346Y-101058502D01*
X114322839Y-101112158D01*
X114334225Y-101164500D01*
X114334225Y-102035500D01*
X114314223Y-102103621D01*
X114260567Y-102150114D01*
X114208225Y-102161500D01*
X113952225Y-102161500D01*
X113884104Y-102141498D01*
X113837611Y-102087842D01*
X113826225Y-102035500D01*
X113826225Y-101882115D01*
X113821750Y-101866876D01*
X113820360Y-101865671D01*
X113812677Y-101864000D01*
X112763450Y-101864000D01*
X112749919Y-101867973D01*
X112748482Y-101877966D01*
X112777742Y-102007799D01*
X112773206Y-102078651D01*
X112731084Y-102135802D01*
X112664751Y-102161108D01*
X112654825Y-102161500D01*
X112105660Y-102161500D01*
X112037539Y-102141498D01*
X112016565Y-102124595D01*
X111861383Y-101969413D01*
X111827357Y-101907101D01*
X111825556Y-101863871D01*
X111851092Y-101669908D01*
X111851529Y-101666590D01*
X111853156Y-101600000D01*
X111834852Y-101377361D01*
X111789095Y-101195195D01*
X111791899Y-101124254D01*
X111832612Y-101066091D01*
X111898307Y-101039172D01*
X111911299Y-101038500D01*
X112663690Y-101038500D01*
X112731811Y-101058502D01*
G37*
G04 #@! TD.AperFunction*
G04 #@! TA.AperFunction,Conductor*
G36*
X112731811Y-98518502D02*
G01*
X112778304Y-98572158D01*
X112788408Y-98642432D01*
X112785107Y-98658173D01*
X112744614Y-98804184D01*
X112746137Y-98812607D01*
X112758517Y-98816000D01*
X113808110Y-98816000D01*
X113823349Y-98811525D01*
X113824554Y-98810135D01*
X113826225Y-98802452D01*
X113826225Y-98624500D01*
X113846227Y-98556379D01*
X113899883Y-98509886D01*
X113952225Y-98498500D01*
X114208225Y-98498500D01*
X114276346Y-98518502D01*
X114322839Y-98572158D01*
X114334225Y-98624500D01*
X114334225Y-99495500D01*
X114314223Y-99563621D01*
X114260567Y-99610114D01*
X114208225Y-99621500D01*
X113952225Y-99621500D01*
X113884104Y-99601498D01*
X113837611Y-99547842D01*
X113826225Y-99495500D01*
X113826225Y-99342115D01*
X113821750Y-99326876D01*
X113820360Y-99325671D01*
X113812677Y-99324000D01*
X112763450Y-99324000D01*
X112749919Y-99327973D01*
X112748482Y-99337966D01*
X112777742Y-99467799D01*
X112773206Y-99538651D01*
X112731084Y-99595802D01*
X112664751Y-99621108D01*
X112654825Y-99621500D01*
X112105660Y-99621500D01*
X112037539Y-99601498D01*
X112016565Y-99584595D01*
X111861383Y-99429413D01*
X111827357Y-99367101D01*
X111825556Y-99323871D01*
X111851092Y-99129908D01*
X111851529Y-99126590D01*
X111853156Y-99060000D01*
X111834852Y-98837361D01*
X111789095Y-98655195D01*
X111791899Y-98584254D01*
X111832612Y-98526091D01*
X111898307Y-98499172D01*
X111911299Y-98498500D01*
X112663690Y-98498500D01*
X112731811Y-98518502D01*
G37*
G04 #@! TD.AperFunction*
G04 #@! TA.AperFunction,Conductor*
G36*
X112731811Y-95978502D02*
G01*
X112778304Y-96032158D01*
X112788408Y-96102432D01*
X112785107Y-96118173D01*
X112744614Y-96264184D01*
X112746137Y-96272607D01*
X112758517Y-96276000D01*
X113808110Y-96276000D01*
X113823349Y-96271525D01*
X113824554Y-96270135D01*
X113826225Y-96262452D01*
X113826225Y-96084500D01*
X113846227Y-96016379D01*
X113899883Y-95969886D01*
X113952225Y-95958500D01*
X114208225Y-95958500D01*
X114276346Y-95978502D01*
X114322839Y-96032158D01*
X114334225Y-96084500D01*
X114334225Y-96955500D01*
X114314223Y-97023621D01*
X114260567Y-97070114D01*
X114208225Y-97081500D01*
X113952225Y-97081500D01*
X113884104Y-97061498D01*
X113837611Y-97007842D01*
X113826225Y-96955500D01*
X113826225Y-96802115D01*
X113821750Y-96786876D01*
X113820360Y-96785671D01*
X113812677Y-96784000D01*
X112763450Y-96784000D01*
X112749919Y-96787973D01*
X112748482Y-96797966D01*
X112777742Y-96927799D01*
X112773206Y-96998651D01*
X112731084Y-97055802D01*
X112664751Y-97081108D01*
X112654825Y-97081500D01*
X112105660Y-97081500D01*
X112037539Y-97061498D01*
X112016565Y-97044595D01*
X111861383Y-96889413D01*
X111827357Y-96827101D01*
X111825556Y-96783871D01*
X111851092Y-96589908D01*
X111851529Y-96586590D01*
X111853156Y-96520000D01*
X111834852Y-96297361D01*
X111789095Y-96115195D01*
X111791899Y-96044254D01*
X111832612Y-95986091D01*
X111898307Y-95959172D01*
X111911299Y-95958500D01*
X112663690Y-95958500D01*
X112731811Y-95978502D01*
G37*
G04 #@! TD.AperFunction*
G04 #@! TA.AperFunction,Conductor*
G36*
X112731811Y-93438502D02*
G01*
X112778304Y-93492158D01*
X112788408Y-93562432D01*
X112785107Y-93578173D01*
X112744614Y-93724184D01*
X112746137Y-93732607D01*
X112758517Y-93736000D01*
X113808110Y-93736000D01*
X113823349Y-93731525D01*
X113824554Y-93730135D01*
X113826225Y-93722452D01*
X113826225Y-93544500D01*
X113846227Y-93476379D01*
X113899883Y-93429886D01*
X113952225Y-93418500D01*
X114208225Y-93418500D01*
X114276346Y-93438502D01*
X114322839Y-93492158D01*
X114334225Y-93544500D01*
X114334225Y-94415500D01*
X114314223Y-94483621D01*
X114260567Y-94530114D01*
X114208225Y-94541500D01*
X113952225Y-94541500D01*
X113884104Y-94521498D01*
X113837611Y-94467842D01*
X113826225Y-94415500D01*
X113826225Y-94262115D01*
X113821750Y-94246876D01*
X113820360Y-94245671D01*
X113812677Y-94244000D01*
X112763450Y-94244000D01*
X112749919Y-94247973D01*
X112748482Y-94257966D01*
X112777742Y-94387799D01*
X112773206Y-94458651D01*
X112731084Y-94515802D01*
X112664751Y-94541108D01*
X112654825Y-94541500D01*
X112105660Y-94541500D01*
X112037539Y-94521498D01*
X112016565Y-94504595D01*
X111861383Y-94349413D01*
X111827357Y-94287101D01*
X111825556Y-94243871D01*
X111844260Y-94101805D01*
X111851529Y-94046590D01*
X111853156Y-93980000D01*
X111834852Y-93757361D01*
X111789095Y-93575195D01*
X111791899Y-93504254D01*
X111832612Y-93446091D01*
X111898307Y-93419172D01*
X111911299Y-93418500D01*
X112663690Y-93418500D01*
X112731811Y-93438502D01*
G37*
G04 #@! TD.AperFunction*
G04 #@! TA.AperFunction,Conductor*
G36*
X112731811Y-90898502D02*
G01*
X112778304Y-90952158D01*
X112788408Y-91022432D01*
X112785107Y-91038173D01*
X112744614Y-91184184D01*
X112746137Y-91192607D01*
X112758517Y-91196000D01*
X113808110Y-91196000D01*
X113823349Y-91191525D01*
X113824554Y-91190135D01*
X113826225Y-91182452D01*
X113826225Y-91004500D01*
X113846227Y-90936379D01*
X113899883Y-90889886D01*
X113952225Y-90878500D01*
X114208225Y-90878500D01*
X114276346Y-90898502D01*
X114322839Y-90952158D01*
X114334225Y-91004500D01*
X114334225Y-91875500D01*
X114314223Y-91943621D01*
X114260567Y-91990114D01*
X114208225Y-92001500D01*
X113952225Y-92001500D01*
X113884104Y-91981498D01*
X113837611Y-91927842D01*
X113826225Y-91875500D01*
X113826225Y-91722115D01*
X113821750Y-91706876D01*
X113820360Y-91705671D01*
X113812677Y-91704000D01*
X112763450Y-91704000D01*
X112749919Y-91707973D01*
X112748482Y-91717966D01*
X112777742Y-91847799D01*
X112773206Y-91918651D01*
X112731084Y-91975802D01*
X112664751Y-92001108D01*
X112654825Y-92001500D01*
X112105660Y-92001500D01*
X112037539Y-91981498D01*
X112016565Y-91964595D01*
X111861383Y-91809413D01*
X111827357Y-91747101D01*
X111825556Y-91703871D01*
X111839265Y-91599740D01*
X111851529Y-91506590D01*
X111851611Y-91503240D01*
X111853074Y-91443365D01*
X111853074Y-91443361D01*
X111853156Y-91440000D01*
X111834852Y-91217361D01*
X111789095Y-91035195D01*
X111791899Y-90964254D01*
X111832612Y-90906091D01*
X111898307Y-90879172D01*
X111911299Y-90878500D01*
X112663690Y-90878500D01*
X112731811Y-90898502D01*
G37*
G04 #@! TD.AperFunction*
G04 #@! TA.AperFunction,Conductor*
G36*
X112754087Y-88283502D02*
G01*
X112800580Y-88337158D01*
X112810684Y-88407432D01*
X112804217Y-88433005D01*
X112800001Y-88444464D01*
X112744614Y-88644183D01*
X112746137Y-88652607D01*
X112758517Y-88656000D01*
X113808110Y-88656000D01*
X113823349Y-88651525D01*
X113824554Y-88650135D01*
X113826225Y-88642452D01*
X113826225Y-88389500D01*
X113846227Y-88321379D01*
X113899883Y-88274886D01*
X113952225Y-88263500D01*
X114208225Y-88263500D01*
X114276346Y-88283502D01*
X114322839Y-88337158D01*
X114334225Y-88389500D01*
X114334225Y-89335500D01*
X114314223Y-89403621D01*
X114260567Y-89450114D01*
X114208225Y-89461500D01*
X113952225Y-89461500D01*
X113884104Y-89441498D01*
X113837611Y-89387842D01*
X113826225Y-89335500D01*
X113826225Y-89182115D01*
X113821750Y-89166876D01*
X113820360Y-89165671D01*
X113812677Y-89164000D01*
X112763450Y-89164000D01*
X112749919Y-89167973D01*
X112748482Y-89177966D01*
X112777742Y-89307799D01*
X112773206Y-89378651D01*
X112731084Y-89435802D01*
X112664751Y-89461108D01*
X112654825Y-89461500D01*
X112105660Y-89461500D01*
X112037539Y-89441498D01*
X112016565Y-89424595D01*
X111861383Y-89269413D01*
X111827357Y-89207101D01*
X111825556Y-89163871D01*
X111851092Y-88969908D01*
X111851529Y-88966590D01*
X111853156Y-88900000D01*
X111834852Y-88677361D01*
X111780431Y-88460702D01*
X111771318Y-88439743D01*
X111762497Y-88369297D01*
X111793163Y-88305265D01*
X111853579Y-88267977D01*
X111886867Y-88263500D01*
X112685966Y-88263500D01*
X112754087Y-88283502D01*
G37*
G04 #@! TD.AperFunction*
G04 #@! TA.AperFunction,Conductor*
G36*
X112754087Y-85743502D02*
G01*
X112800580Y-85797158D01*
X112810684Y-85867432D01*
X112804217Y-85893005D01*
X112800001Y-85904464D01*
X112744614Y-86104183D01*
X112746137Y-86112607D01*
X112758517Y-86116000D01*
X113808110Y-86116000D01*
X113823349Y-86111525D01*
X113824554Y-86110135D01*
X113826225Y-86102452D01*
X113826225Y-85849500D01*
X113846227Y-85781379D01*
X113899883Y-85734886D01*
X113952225Y-85723500D01*
X114208225Y-85723500D01*
X114276346Y-85743502D01*
X114322839Y-85797158D01*
X114334225Y-85849500D01*
X114334225Y-86870500D01*
X114314223Y-86938621D01*
X114260567Y-86985114D01*
X114208225Y-86996500D01*
X113952225Y-86996500D01*
X113884104Y-86976498D01*
X113837611Y-86922842D01*
X113826225Y-86870500D01*
X113826225Y-86642115D01*
X113821750Y-86626876D01*
X113820360Y-86625671D01*
X113812677Y-86624000D01*
X112763450Y-86624000D01*
X112749919Y-86627973D01*
X112748482Y-86637966D01*
X112778790Y-86772446D01*
X112781869Y-86782275D01*
X112798445Y-86823096D01*
X112805541Y-86893737D01*
X112773319Y-86957001D01*
X112712009Y-86992801D01*
X112681702Y-86996500D01*
X112074595Y-86996500D01*
X112006474Y-86976498D01*
X111985500Y-86959595D01*
X111841218Y-86815313D01*
X111807192Y-86753001D01*
X111809755Y-86689589D01*
X111817827Y-86663023D01*
X111822370Y-86648069D01*
X111851529Y-86426590D01*
X111853156Y-86360000D01*
X111834852Y-86137361D01*
X111780431Y-85920702D01*
X111771318Y-85899743D01*
X111762497Y-85829297D01*
X111793163Y-85765265D01*
X111853579Y-85727977D01*
X111886867Y-85723500D01*
X112685966Y-85723500D01*
X112754087Y-85743502D01*
G37*
G04 #@! TD.AperFunction*
G04 #@! TA.AperFunction,Conductor*
G36*
X130870824Y-83767201D02*
G01*
X130921054Y-83817375D01*
X130936500Y-83877822D01*
X130936500Y-84049903D01*
X130916498Y-84118024D01*
X130862842Y-84164517D01*
X130797665Y-84175248D01*
X130793560Y-84174828D01*
X130787145Y-84174500D01*
X130762115Y-84174500D01*
X130746876Y-84178975D01*
X130745671Y-84180365D01*
X130744000Y-84188048D01*
X130744000Y-85535500D01*
X130723998Y-85603621D01*
X130670342Y-85650114D01*
X130618000Y-85661500D01*
X130362000Y-85661500D01*
X130293879Y-85641498D01*
X130247386Y-85587842D01*
X130236000Y-85535500D01*
X130236000Y-84192616D01*
X130231525Y-84177377D01*
X130230135Y-84176172D01*
X130222452Y-84174501D01*
X130192905Y-84174501D01*
X130186386Y-84174838D01*
X130090794Y-84184757D01*
X130077400Y-84187649D01*
X129923216Y-84239088D01*
X129910038Y-84245261D01*
X129772193Y-84330563D01*
X129760792Y-84339599D01*
X129646262Y-84454328D01*
X129639206Y-84463262D01*
X129581288Y-84504323D01*
X129510365Y-84507553D01*
X129448954Y-84471926D01*
X129442154Y-84464093D01*
X129438478Y-84458152D01*
X129313303Y-84333195D01*
X129307072Y-84329354D01*
X129168968Y-84244225D01*
X129168966Y-84244224D01*
X129162738Y-84240385D01*
X129080177Y-84213001D01*
X129001389Y-84186868D01*
X129001387Y-84186868D01*
X128994861Y-84184703D01*
X128988025Y-84184003D01*
X128988022Y-84184002D01*
X128944969Y-84179591D01*
X128890400Y-84174000D01*
X128469500Y-84174000D01*
X128401379Y-84153998D01*
X128354886Y-84100342D01*
X128343500Y-84048000D01*
X128343500Y-83995002D01*
X128363502Y-83926881D01*
X128417158Y-83880388D01*
X128487432Y-83870284D01*
X128513729Y-83877020D01*
X128572282Y-83898971D01*
X128572288Y-83898973D01*
X128579684Y-83901745D01*
X128641866Y-83908500D01*
X130438134Y-83908500D01*
X130500316Y-83901745D01*
X130636705Y-83850615D01*
X130643892Y-83845229D01*
X130734935Y-83776996D01*
X130801442Y-83752148D01*
X130870824Y-83767201D01*
G37*
G04 #@! TD.AperFunction*
G04 #@! TA.AperFunction,Conductor*
G36*
X120911121Y-82951002D02*
G01*
X120957614Y-83004658D01*
X120969000Y-83057000D01*
X120969000Y-83974884D01*
X120973475Y-83990123D01*
X120974865Y-83991328D01*
X120982548Y-83992999D01*
X121478000Y-83992999D01*
X121546121Y-84013001D01*
X121592614Y-84066657D01*
X121604000Y-84118999D01*
X121604000Y-84155500D01*
X121583998Y-84223621D01*
X121530342Y-84270114D01*
X121478000Y-84281500D01*
X119823498Y-84281500D01*
X119821050Y-84281693D01*
X119821042Y-84281693D01*
X119792579Y-84283933D01*
X119792574Y-84283934D01*
X119786169Y-84284438D01*
X119686231Y-84313472D01*
X119634012Y-84328643D01*
X119634010Y-84328644D01*
X119626399Y-84330855D01*
X119619572Y-84334892D01*
X119619573Y-84334892D01*
X119490020Y-84411509D01*
X119490017Y-84411511D01*
X119483193Y-84415547D01*
X119365547Y-84533193D01*
X119361511Y-84540017D01*
X119361509Y-84540020D01*
X119316179Y-84616669D01*
X119280855Y-84676399D01*
X119234438Y-84836169D01*
X119233934Y-84842574D01*
X119233933Y-84842579D01*
X119232264Y-84863792D01*
X119231500Y-84873498D01*
X119231500Y-85306502D01*
X119231693Y-85308955D01*
X119231694Y-85308979D01*
X119232112Y-85314287D01*
X119217518Y-85383767D01*
X119167677Y-85434327D01*
X119098412Y-85449915D01*
X119031716Y-85425581D01*
X119017415Y-85413278D01*
X118301873Y-84697736D01*
X118294344Y-84689462D01*
X118290232Y-84682982D01*
X118240580Y-84636356D01*
X118237739Y-84633602D01*
X118218002Y-84613865D01*
X118214805Y-84611385D01*
X118205783Y-84603680D01*
X118179332Y-84578841D01*
X118173553Y-84573414D01*
X118166607Y-84569595D01*
X118166604Y-84569593D01*
X118155798Y-84563652D01*
X118139279Y-84552801D01*
X118138815Y-84552441D01*
X118123273Y-84540386D01*
X118116004Y-84537241D01*
X118116000Y-84537238D01*
X118082695Y-84522826D01*
X118072045Y-84517609D01*
X118033292Y-84496305D01*
X118013669Y-84491267D01*
X117994966Y-84484863D01*
X117983655Y-84479968D01*
X117983652Y-84479967D01*
X117976377Y-84476819D01*
X117974357Y-84476499D01*
X117916728Y-84439695D01*
X117887050Y-84375199D01*
X117891157Y-84320283D01*
X117901503Y-84286233D01*
X117952595Y-84118069D01*
X117981754Y-83896590D01*
X117982573Y-83863089D01*
X117983299Y-83833365D01*
X117983299Y-83833361D01*
X117983381Y-83830000D01*
X117965077Y-83607361D01*
X117925769Y-83450871D01*
X119238456Y-83450871D01*
X119279107Y-83590790D01*
X119285352Y-83605221D01*
X119361911Y-83734678D01*
X119371551Y-83747104D01*
X119477896Y-83853449D01*
X119490322Y-83863089D01*
X119619779Y-83939648D01*
X119634210Y-83945893D01*
X119780065Y-83988269D01*
X119792667Y-83990570D01*
X119821084Y-83992807D01*
X119826014Y-83993000D01*
X120442885Y-83993000D01*
X120458124Y-83988525D01*
X120459329Y-83987135D01*
X120461000Y-83979452D01*
X120461000Y-83457115D01*
X120456525Y-83441876D01*
X120455135Y-83440671D01*
X120447452Y-83439000D01*
X119253122Y-83439000D01*
X119239591Y-83442973D01*
X119238456Y-83450871D01*
X117925769Y-83450871D01*
X117910656Y-83390702D01*
X117906308Y-83380702D01*
X117897194Y-83359741D01*
X117888375Y-83289295D01*
X117919042Y-83225263D01*
X117979459Y-83187976D01*
X118012744Y-83183500D01*
X118666233Y-83183500D01*
X118677416Y-83184027D01*
X118684909Y-83185702D01*
X118692835Y-83185453D01*
X118692836Y-83185453D01*
X118752986Y-83183562D01*
X118756945Y-83183500D01*
X118784856Y-83183500D01*
X118788791Y-83183003D01*
X118788856Y-83182995D01*
X118800693Y-83182062D01*
X118832951Y-83181048D01*
X118836970Y-83180922D01*
X118844889Y-83180673D01*
X118864343Y-83175021D01*
X118883700Y-83171013D01*
X118895930Y-83169468D01*
X118895931Y-83169468D01*
X118903797Y-83168474D01*
X118911168Y-83165555D01*
X118911170Y-83165555D01*
X118944912Y-83152196D01*
X118956142Y-83148351D01*
X118990983Y-83138229D01*
X118990984Y-83138229D01*
X118998593Y-83136018D01*
X119005412Y-83131985D01*
X119005417Y-83131983D01*
X119016028Y-83125707D01*
X119033776Y-83117012D01*
X119052617Y-83109552D01*
X119088387Y-83083564D01*
X119098307Y-83077048D01*
X119129535Y-83058580D01*
X119129538Y-83058578D01*
X119136362Y-83054542D01*
X119150683Y-83040221D01*
X119165717Y-83027380D01*
X119175694Y-83020131D01*
X119182107Y-83015472D01*
X119210298Y-82981395D01*
X119218288Y-82972616D01*
X119222999Y-82967905D01*
X119285311Y-82933879D01*
X119312094Y-82931000D01*
X120843000Y-82931000D01*
X120911121Y-82951002D01*
G37*
G04 #@! TD.AperFunction*
G04 #@! TA.AperFunction,Conductor*
G36*
X111923324Y-81770998D02*
G01*
X111941085Y-81785766D01*
X112990607Y-82835288D01*
X113024633Y-82897600D01*
X113019568Y-82968415D01*
X113005600Y-82995387D01*
X112898323Y-83152649D01*
X112893225Y-83161623D01*
X112803563Y-83354783D01*
X112800000Y-83364470D01*
X112744614Y-83564183D01*
X112746137Y-83572607D01*
X112758517Y-83576000D01*
X113808110Y-83576000D01*
X113823349Y-83571525D01*
X113824554Y-83570135D01*
X113826225Y-83562452D01*
X113826225Y-83309500D01*
X113846227Y-83241379D01*
X113899883Y-83194886D01*
X113952225Y-83183500D01*
X114208225Y-83183500D01*
X114276346Y-83203502D01*
X114322839Y-83257158D01*
X114334225Y-83309500D01*
X114334225Y-84330500D01*
X114314223Y-84398621D01*
X114260567Y-84445114D01*
X114208225Y-84456500D01*
X113952225Y-84456500D01*
X113884104Y-84436498D01*
X113837611Y-84382842D01*
X113826225Y-84330500D01*
X113826225Y-84102115D01*
X113821750Y-84086876D01*
X113820360Y-84085671D01*
X113812677Y-84084000D01*
X112763450Y-84084000D01*
X112749919Y-84087973D01*
X112748482Y-84097966D01*
X112778790Y-84232446D01*
X112781869Y-84242275D01*
X112798445Y-84283096D01*
X112805541Y-84353737D01*
X112773319Y-84417001D01*
X112712009Y-84452801D01*
X112681702Y-84456500D01*
X112074595Y-84456500D01*
X112006474Y-84436498D01*
X111985500Y-84419595D01*
X111841218Y-84275313D01*
X111807192Y-84213001D01*
X111809755Y-84149589D01*
X111810685Y-84146530D01*
X111822370Y-84108069D01*
X111851529Y-83886590D01*
X111851763Y-83877020D01*
X111853074Y-83823365D01*
X111853074Y-83823361D01*
X111853156Y-83820000D01*
X111834852Y-83597361D01*
X111780431Y-83380702D01*
X111691354Y-83175840D01*
X111627443Y-83077048D01*
X111572822Y-82992617D01*
X111572820Y-82992614D01*
X111570014Y-82988277D01*
X111419670Y-82823051D01*
X111415619Y-82819852D01*
X111415615Y-82819848D01*
X111248414Y-82687800D01*
X111248410Y-82687798D01*
X111244359Y-82684598D01*
X111203053Y-82661796D01*
X111153084Y-82611364D01*
X111138312Y-82541921D01*
X111163428Y-82475516D01*
X111190780Y-82448909D01*
X111234603Y-82417650D01*
X111369860Y-82321173D01*
X111374845Y-82316206D01*
X111502997Y-82188500D01*
X111528096Y-82163489D01*
X111538656Y-82148794D01*
X111655435Y-81986277D01*
X111658453Y-81982077D01*
X111739034Y-81819033D01*
X111787146Y-81766827D01*
X111855847Y-81748920D01*
X111923324Y-81770998D01*
G37*
G04 #@! TD.AperFunction*
G04 #@! TA.AperFunction,Conductor*
G36*
X112731811Y-78198502D02*
G01*
X112778304Y-78252158D01*
X112788408Y-78322432D01*
X112785107Y-78338173D01*
X112744614Y-78484184D01*
X112746137Y-78492607D01*
X112758517Y-78496000D01*
X113808110Y-78496000D01*
X113823349Y-78491525D01*
X113824554Y-78490135D01*
X113826225Y-78482452D01*
X113826225Y-78304500D01*
X113846227Y-78236379D01*
X113899883Y-78189886D01*
X113952225Y-78178500D01*
X114208225Y-78178500D01*
X114276346Y-78198502D01*
X114322839Y-78252158D01*
X114334225Y-78304500D01*
X114334225Y-81790500D01*
X114314223Y-81858621D01*
X114260567Y-81905114D01*
X114208225Y-81916500D01*
X113952225Y-81916500D01*
X113884104Y-81896498D01*
X113837611Y-81842842D01*
X113826225Y-81790500D01*
X113826225Y-79022115D01*
X113821750Y-79006876D01*
X113820360Y-79005671D01*
X113812677Y-79004000D01*
X112763450Y-79004000D01*
X112749919Y-79007973D01*
X112748482Y-79017966D01*
X112778790Y-79152446D01*
X112781870Y-79162275D01*
X112861995Y-79359603D01*
X112866638Y-79368794D01*
X112977919Y-79550388D01*
X112984002Y-79558699D01*
X113123438Y-79719667D01*
X113130805Y-79726883D01*
X113294659Y-79862916D01*
X113303106Y-79868831D01*
X113372704Y-79909501D01*
X113421428Y-79961140D01*
X113434499Y-80030923D01*
X113407768Y-80096694D01*
X113367312Y-80130053D01*
X113358687Y-80134542D01*
X113349963Y-80140036D01*
X113179658Y-80267905D01*
X113171951Y-80274748D01*
X113024815Y-80428717D01*
X113018329Y-80436727D01*
X112898323Y-80612649D01*
X112893224Y-80621623D01*
X112866263Y-80679707D01*
X112819439Y-80733074D01*
X112751195Y-80752655D01*
X112683200Y-80732231D01*
X112662880Y-80715752D01*
X112430405Y-80483277D01*
X112396379Y-80420965D01*
X112393500Y-80394182D01*
X112393500Y-80088767D01*
X112394027Y-80077584D01*
X112395702Y-80070091D01*
X112394101Y-80019144D01*
X112393562Y-80002014D01*
X112393500Y-79998055D01*
X112393500Y-79970144D01*
X112392995Y-79966144D01*
X112392062Y-79954301D01*
X112390922Y-79918029D01*
X112390673Y-79910110D01*
X112385022Y-79890658D01*
X112381014Y-79871306D01*
X112379467Y-79859063D01*
X112378474Y-79851203D01*
X112375556Y-79843832D01*
X112362200Y-79810097D01*
X112358355Y-79798870D01*
X112352041Y-79777139D01*
X112346018Y-79756407D01*
X112341984Y-79749585D01*
X112341981Y-79749579D01*
X112335706Y-79738968D01*
X112327010Y-79721218D01*
X112322472Y-79709756D01*
X112322469Y-79709751D01*
X112319552Y-79702383D01*
X112293573Y-79666625D01*
X112287057Y-79656707D01*
X112270650Y-79628965D01*
X112264542Y-79618637D01*
X112250218Y-79604313D01*
X112237376Y-79589278D01*
X112225472Y-79572893D01*
X112191406Y-79544711D01*
X112182627Y-79536722D01*
X111841218Y-79195313D01*
X111807192Y-79133001D01*
X111809755Y-79069589D01*
X111820865Y-79033022D01*
X111822370Y-79028069D01*
X111851529Y-78806590D01*
X111851611Y-78803240D01*
X111853074Y-78743365D01*
X111853074Y-78743361D01*
X111853156Y-78740000D01*
X111834852Y-78517361D01*
X111789095Y-78335195D01*
X111791899Y-78264254D01*
X111832612Y-78206091D01*
X111898307Y-78179172D01*
X111911299Y-78178500D01*
X112663690Y-78178500D01*
X112731811Y-78198502D01*
G37*
G04 #@! TD.AperFunction*
G04 #@! TA.AperFunction,Conductor*
G36*
X112731811Y-73118502D02*
G01*
X112778304Y-73172158D01*
X112788408Y-73242432D01*
X112785107Y-73258173D01*
X112744614Y-73404184D01*
X112746137Y-73412607D01*
X112758517Y-73416000D01*
X113808110Y-73416000D01*
X113823349Y-73411525D01*
X113824554Y-73410135D01*
X113826225Y-73402452D01*
X113826225Y-73224500D01*
X113846227Y-73156379D01*
X113899883Y-73109886D01*
X113952225Y-73098500D01*
X114208225Y-73098500D01*
X114276346Y-73118502D01*
X114322839Y-73172158D01*
X114334225Y-73224500D01*
X114334225Y-76635500D01*
X114314223Y-76703621D01*
X114260567Y-76750114D01*
X114208225Y-76761500D01*
X113952225Y-76761500D01*
X113884104Y-76741498D01*
X113837611Y-76687842D01*
X113826225Y-76635500D01*
X113826225Y-76482115D01*
X113821750Y-76466876D01*
X113820360Y-76465671D01*
X113812677Y-76464000D01*
X112763450Y-76464000D01*
X112749919Y-76467973D01*
X112748482Y-76477966D01*
X112777742Y-76607799D01*
X112773206Y-76678651D01*
X112731084Y-76735802D01*
X112664751Y-76761108D01*
X112654825Y-76761500D01*
X112105660Y-76761500D01*
X112037539Y-76741498D01*
X112016565Y-76724595D01*
X111861383Y-76569413D01*
X111827357Y-76507101D01*
X111825556Y-76463871D01*
X111851092Y-76269908D01*
X111851529Y-76266590D01*
X111851611Y-76263240D01*
X111853074Y-76203365D01*
X111853074Y-76203361D01*
X111853156Y-76200000D01*
X111834852Y-75977361D01*
X111826518Y-75944183D01*
X112744614Y-75944183D01*
X112746137Y-75952607D01*
X112758517Y-75956000D01*
X113808110Y-75956000D01*
X113823349Y-75951525D01*
X113824554Y-75950135D01*
X113826225Y-75942452D01*
X113826225Y-73942115D01*
X113821750Y-73926876D01*
X113820360Y-73925671D01*
X113812677Y-73924000D01*
X112763450Y-73924000D01*
X112749919Y-73927973D01*
X112748482Y-73937966D01*
X112778790Y-74072446D01*
X112781870Y-74082275D01*
X112861995Y-74279603D01*
X112866638Y-74288794D01*
X112977919Y-74470388D01*
X112984002Y-74478699D01*
X113123438Y-74639667D01*
X113130805Y-74646883D01*
X113294659Y-74782916D01*
X113303106Y-74788831D01*
X113372704Y-74829501D01*
X113421428Y-74881140D01*
X113434499Y-74950923D01*
X113407768Y-75016694D01*
X113367312Y-75050053D01*
X113358687Y-75054542D01*
X113349963Y-75060036D01*
X113179658Y-75187905D01*
X113171951Y-75194748D01*
X113024815Y-75348717D01*
X113018329Y-75356727D01*
X112898323Y-75532649D01*
X112893225Y-75541623D01*
X112803563Y-75734783D01*
X112800000Y-75744470D01*
X112744614Y-75944183D01*
X111826518Y-75944183D01*
X111780431Y-75760702D01*
X111691354Y-75555840D01*
X111627443Y-75457048D01*
X111572822Y-75372617D01*
X111572820Y-75372614D01*
X111570014Y-75368277D01*
X111419670Y-75203051D01*
X111415619Y-75199852D01*
X111415615Y-75199848D01*
X111248414Y-75067800D01*
X111248410Y-75067798D01*
X111244359Y-75064598D01*
X111203053Y-75041796D01*
X111153084Y-74991364D01*
X111138312Y-74921921D01*
X111163428Y-74855516D01*
X111190780Y-74828909D01*
X111255260Y-74782916D01*
X111369860Y-74701173D01*
X111528096Y-74543489D01*
X111658453Y-74362077D01*
X111671995Y-74334678D01*
X111755136Y-74166453D01*
X111755137Y-74166451D01*
X111757430Y-74161811D01*
X111822370Y-73948069D01*
X111851529Y-73726590D01*
X111852752Y-73676526D01*
X111853074Y-73663365D01*
X111853074Y-73663361D01*
X111853156Y-73660000D01*
X111834852Y-73437361D01*
X111789095Y-73255195D01*
X111791899Y-73184254D01*
X111832612Y-73126091D01*
X111898307Y-73099172D01*
X111911299Y-73098500D01*
X112663690Y-73098500D01*
X112731811Y-73118502D01*
G37*
G04 #@! TD.AperFunction*
G04 #@! TA.AperFunction,Conductor*
G36*
X127445519Y-75388135D02*
G01*
X127495000Y-75439049D01*
X127509099Y-75508632D01*
X127483341Y-75574791D01*
X127472656Y-75586944D01*
X127268598Y-75791002D01*
X127206286Y-75825028D01*
X127135471Y-75819963D01*
X127133137Y-75819000D01*
X125537000Y-75819000D01*
X125468879Y-75798998D01*
X125422386Y-75745342D01*
X125411000Y-75693000D01*
X125411000Y-75689500D01*
X125431002Y-75621379D01*
X125484658Y-75574886D01*
X125537000Y-75563500D01*
X126794233Y-75563500D01*
X126805416Y-75564027D01*
X126812909Y-75565702D01*
X126820835Y-75565453D01*
X126820836Y-75565453D01*
X126880986Y-75563562D01*
X126884945Y-75563500D01*
X126912856Y-75563500D01*
X126916791Y-75563003D01*
X126916856Y-75562995D01*
X126928693Y-75562062D01*
X126960951Y-75561048D01*
X126964970Y-75560922D01*
X126972889Y-75560673D01*
X126992343Y-75555021D01*
X127011700Y-75551013D01*
X127023930Y-75549468D01*
X127023931Y-75549468D01*
X127031797Y-75548474D01*
X127039168Y-75545555D01*
X127039170Y-75545555D01*
X127072912Y-75532196D01*
X127084142Y-75528351D01*
X127118983Y-75518229D01*
X127118984Y-75518229D01*
X127126593Y-75516018D01*
X127133412Y-75511985D01*
X127133417Y-75511983D01*
X127144028Y-75505707D01*
X127161776Y-75497012D01*
X127180617Y-75489552D01*
X127216387Y-75463564D01*
X127226307Y-75457048D01*
X127257535Y-75438580D01*
X127257538Y-75438578D01*
X127264362Y-75434542D01*
X127278683Y-75420221D01*
X127293717Y-75407380D01*
X127309500Y-75395913D01*
X127376368Y-75372054D01*
X127445519Y-75388135D01*
G37*
G04 #@! TD.AperFunction*
G04 #@! TA.AperFunction,Conductor*
G36*
X125515450Y-67203502D02*
G01*
X125561943Y-67257158D01*
X125572047Y-67327432D01*
X125554589Y-67375616D01*
X125519684Y-67432243D01*
X125513537Y-67445424D01*
X125462362Y-67599710D01*
X125459495Y-67613086D01*
X125449828Y-67707438D01*
X125449500Y-67713855D01*
X125449500Y-67738885D01*
X125453975Y-67754124D01*
X125455365Y-67755329D01*
X125463048Y-67757000D01*
X127897384Y-67757000D01*
X127912623Y-67752525D01*
X127913828Y-67751135D01*
X127915499Y-67743452D01*
X127915499Y-67713905D01*
X127915162Y-67707386D01*
X127905243Y-67611794D01*
X127902351Y-67598400D01*
X127850912Y-67444216D01*
X127844739Y-67431038D01*
X127810558Y-67375803D01*
X127791720Y-67307351D01*
X127812881Y-67239582D01*
X127867322Y-67194010D01*
X127917702Y-67183500D01*
X128212803Y-67183500D01*
X128280924Y-67203502D01*
X128327417Y-67257158D01*
X128337521Y-67327432D01*
X128313629Y-67385065D01*
X128245214Y-67476351D01*
X128236676Y-67491946D01*
X128191522Y-67612394D01*
X128187895Y-67627649D01*
X128182369Y-67678514D01*
X128182000Y-67685328D01*
X128182000Y-68307885D01*
X128186475Y-68323124D01*
X128187865Y-68324329D01*
X128195548Y-68326000D01*
X129668000Y-68326000D01*
X129736121Y-68346002D01*
X129782614Y-68399658D01*
X129794000Y-68452000D01*
X129794000Y-68708000D01*
X129773998Y-68776121D01*
X129720342Y-68822614D01*
X129668000Y-68834000D01*
X128200116Y-68834000D01*
X128184877Y-68838475D01*
X128183672Y-68839865D01*
X128182001Y-68847548D01*
X128182001Y-69474669D01*
X128182371Y-69481490D01*
X128187895Y-69532352D01*
X128191521Y-69547604D01*
X128236676Y-69668054D01*
X128245214Y-69683649D01*
X128321715Y-69785724D01*
X128334276Y-69798285D01*
X128436351Y-69874786D01*
X128451946Y-69883324D01*
X128560827Y-69924142D01*
X128617591Y-69966784D01*
X128642291Y-70033345D01*
X128627083Y-70102694D01*
X128607691Y-70129175D01*
X128522360Y-70218469D01*
X128480629Y-70262138D01*
X128477715Y-70266410D01*
X128477714Y-70266411D01*
X128421419Y-70348937D01*
X128354743Y-70446680D01*
X128334361Y-70490590D01*
X128263033Y-70644254D01*
X128260688Y-70649305D01*
X128200989Y-70864570D01*
X128200440Y-70869707D01*
X128199456Y-70878913D01*
X128177251Y-71086695D01*
X128177548Y-71091848D01*
X128177548Y-71091851D01*
X128183011Y-71186590D01*
X128190110Y-71309715D01*
X128191247Y-71314761D01*
X128191248Y-71314767D01*
X128223453Y-71457668D01*
X128218917Y-71528520D01*
X128189631Y-71574464D01*
X127877747Y-71886348D01*
X127869461Y-71893888D01*
X127862982Y-71898000D01*
X127857557Y-71903777D01*
X127816357Y-71947651D01*
X127813602Y-71950493D01*
X127793865Y-71970230D01*
X127793026Y-71969391D01*
X127737276Y-72004546D01*
X127666282Y-72003936D01*
X127606888Y-71965040D01*
X127577508Y-71896521D01*
X127576732Y-71889134D01*
X127576731Y-71889131D01*
X127576042Y-71882572D01*
X127517027Y-71700944D01*
X127472385Y-71623621D01*
X127424842Y-71541275D01*
X127424841Y-71541274D01*
X127421540Y-71535556D01*
X127417121Y-71530648D01*
X127415064Y-71527817D01*
X127391205Y-71460949D01*
X127391000Y-71453756D01*
X127391000Y-70973516D01*
X127411002Y-70905395D01*
X127464658Y-70858902D01*
X127472374Y-70855863D01*
X127474497Y-70854868D01*
X127481446Y-70852550D01*
X127631848Y-70759478D01*
X127756805Y-70634303D01*
X127767854Y-70616379D01*
X127845775Y-70489968D01*
X127845776Y-70489966D01*
X127849615Y-70483738D01*
X127905297Y-70315861D01*
X127916000Y-70211400D01*
X127916000Y-69610600D01*
X127915663Y-69607350D01*
X127905738Y-69511692D01*
X127905737Y-69511688D01*
X127905026Y-69504834D01*
X127900977Y-69492696D01*
X127851368Y-69344002D01*
X127849050Y-69337054D01*
X127755978Y-69186652D01*
X127630803Y-69061695D01*
X127626265Y-69058898D01*
X127585676Y-69001647D01*
X127582446Y-68930724D01*
X127618072Y-68869313D01*
X127626568Y-68861938D01*
X127636707Y-68853902D01*
X127751239Y-68739171D01*
X127760251Y-68727760D01*
X127845316Y-68589757D01*
X127851463Y-68576576D01*
X127902638Y-68422290D01*
X127905505Y-68408914D01*
X127915172Y-68314562D01*
X127915500Y-68308146D01*
X127915500Y-68283115D01*
X127911025Y-68267876D01*
X127909635Y-68266671D01*
X127901952Y-68265000D01*
X125467616Y-68265000D01*
X125452377Y-68269475D01*
X125451172Y-68270865D01*
X125449501Y-68278548D01*
X125449501Y-68308095D01*
X125449838Y-68314614D01*
X125459757Y-68410206D01*
X125462649Y-68423600D01*
X125514088Y-68577784D01*
X125520261Y-68590962D01*
X125605563Y-68728807D01*
X125614599Y-68740208D01*
X125729328Y-68854738D01*
X125738262Y-68861794D01*
X125779323Y-68919712D01*
X125782553Y-68990635D01*
X125746926Y-69052046D01*
X125739093Y-69058846D01*
X125733152Y-69062522D01*
X125608195Y-69187697D01*
X125604355Y-69193927D01*
X125604354Y-69193928D01*
X125552878Y-69277438D01*
X125515385Y-69338262D01*
X125513081Y-69345209D01*
X125467879Y-69481490D01*
X125459703Y-69506139D01*
X125459003Y-69512975D01*
X125459002Y-69512978D01*
X125455443Y-69547718D01*
X125449000Y-69610600D01*
X125449000Y-70211400D01*
X125449337Y-70214646D01*
X125449337Y-70214650D01*
X125457618Y-70294457D01*
X125459974Y-70317166D01*
X125462155Y-70323702D01*
X125462155Y-70323704D01*
X125471180Y-70350754D01*
X125515950Y-70484946D01*
X125609022Y-70635348D01*
X125734197Y-70760305D01*
X125740427Y-70764145D01*
X125740428Y-70764146D01*
X125877590Y-70848694D01*
X125884762Y-70853115D01*
X125891709Y-70855419D01*
X125898344Y-70858513D01*
X125897301Y-70860749D01*
X125946038Y-70894523D01*
X125973266Y-70960091D01*
X125974000Y-70973672D01*
X125974000Y-71453756D01*
X125953998Y-71521877D01*
X125949936Y-71527817D01*
X125947879Y-71530648D01*
X125943460Y-71535556D01*
X125940159Y-71541274D01*
X125940158Y-71541275D01*
X125892616Y-71623621D01*
X125847973Y-71700944D01*
X125788958Y-71882572D01*
X125788268Y-71889133D01*
X125788268Y-71889135D01*
X125774353Y-72021531D01*
X125768996Y-72072500D01*
X125769686Y-72079065D01*
X125784908Y-72223891D01*
X125788958Y-72262428D01*
X125847973Y-72444056D01*
X125851276Y-72449778D01*
X125851277Y-72449779D01*
X125917764Y-72564937D01*
X125943460Y-72609444D01*
X125947879Y-72614352D01*
X125949936Y-72617183D01*
X125973795Y-72684051D01*
X125974000Y-72691244D01*
X125974000Y-72931840D01*
X125953998Y-72999961D01*
X125937095Y-73020935D01*
X125508435Y-73449595D01*
X125446123Y-73483621D01*
X125419340Y-73486500D01*
X124773498Y-73486500D01*
X124771050Y-73486693D01*
X124771042Y-73486693D01*
X124742579Y-73488933D01*
X124742574Y-73488934D01*
X124736169Y-73489438D01*
X124636231Y-73518472D01*
X124584012Y-73533643D01*
X124584010Y-73533644D01*
X124576399Y-73535855D01*
X124569572Y-73539892D01*
X124569573Y-73539892D01*
X124440020Y-73616509D01*
X124440017Y-73616511D01*
X124433193Y-73620547D01*
X124422683Y-73631057D01*
X124359759Y-73663119D01*
X124360110Y-73664326D01*
X124353784Y-73666164D01*
X124353783Y-73666164D01*
X124352502Y-73666537D01*
X124352500Y-73666537D01*
X124340652Y-73669979D01*
X124321293Y-73673988D01*
X124319983Y-73674154D01*
X124301203Y-73676526D01*
X124293837Y-73679442D01*
X124293831Y-73679444D01*
X124260098Y-73692800D01*
X124248868Y-73696645D01*
X124214017Y-73706770D01*
X124206407Y-73708981D01*
X124199584Y-73713016D01*
X124188966Y-73719295D01*
X124171213Y-73727992D01*
X124163568Y-73731019D01*
X124152383Y-73735448D01*
X124145968Y-73740109D01*
X124116612Y-73761437D01*
X124106695Y-73767951D01*
X124068638Y-73790458D01*
X124054317Y-73804779D01*
X124039284Y-73817619D01*
X124022893Y-73829528D01*
X124006193Y-73849715D01*
X123994712Y-73863593D01*
X123986722Y-73872374D01*
X123599499Y-74259596D01*
X123537187Y-74293621D01*
X123510404Y-74296500D01*
X122323999Y-74296500D01*
X122255878Y-74276498D01*
X122209385Y-74222842D01*
X122197999Y-74170500D01*
X122197999Y-74081017D01*
X122197805Y-74076080D01*
X122195570Y-74047664D01*
X122193270Y-74035069D01*
X122150893Y-73889210D01*
X122144648Y-73874779D01*
X122068089Y-73745322D01*
X122058449Y-73732896D01*
X121952104Y-73626551D01*
X121939678Y-73616911D01*
X121810221Y-73540352D01*
X121795790Y-73534107D01*
X121649935Y-73491731D01*
X121637333Y-73489430D01*
X121608916Y-73487193D01*
X121603986Y-73487000D01*
X120987115Y-73487000D01*
X120971876Y-73491475D01*
X120970671Y-73492865D01*
X120969000Y-73500548D01*
X120969000Y-74170500D01*
X120948998Y-74238621D01*
X120895342Y-74285114D01*
X120843000Y-74296500D01*
X120587000Y-74296500D01*
X120518879Y-74276498D01*
X120472386Y-74222842D01*
X120461000Y-74170500D01*
X120461000Y-73505116D01*
X120456525Y-73489877D01*
X120455135Y-73488672D01*
X120447452Y-73487001D01*
X120118093Y-73487001D01*
X120049972Y-73466999D01*
X120003479Y-73413343D01*
X119993375Y-73343069D01*
X120022869Y-73278489D01*
X120028998Y-73271906D01*
X120829549Y-72471355D01*
X120891861Y-72437329D01*
X120943762Y-72436979D01*
X121123597Y-72473567D01*
X121128772Y-72473757D01*
X121128774Y-72473757D01*
X121341673Y-72481564D01*
X121341677Y-72481564D01*
X121346837Y-72481753D01*
X121351957Y-72481097D01*
X121351959Y-72481097D01*
X121563288Y-72454025D01*
X121563289Y-72454025D01*
X121568416Y-72453368D01*
X121573366Y-72451883D01*
X121777429Y-72390661D01*
X121777434Y-72390659D01*
X121782384Y-72389174D01*
X121982994Y-72290896D01*
X122164860Y-72161173D01*
X122273091Y-72053319D01*
X122335462Y-72019404D01*
X122406268Y-72024592D01*
X122463030Y-72067238D01*
X122480012Y-72098341D01*
X122524385Y-72216705D01*
X122611739Y-72333261D01*
X122728295Y-72420615D01*
X122864684Y-72471745D01*
X122926866Y-72478500D01*
X124723134Y-72478500D01*
X124785316Y-72471745D01*
X124921705Y-72420615D01*
X125038261Y-72333261D01*
X125125615Y-72216705D01*
X125176745Y-72080316D01*
X125183500Y-72018134D01*
X125183500Y-70221866D01*
X125176745Y-70159684D01*
X125125615Y-70023295D01*
X125038261Y-69906739D01*
X124921705Y-69819385D01*
X124894905Y-69809338D01*
X124803203Y-69774960D01*
X124746439Y-69732318D01*
X124721739Y-69665756D01*
X124736947Y-69596408D01*
X124758493Y-69567727D01*
X124778572Y-69547718D01*
X124863096Y-69463489D01*
X124993453Y-69282077D01*
X125042659Y-69182517D01*
X125090136Y-69086453D01*
X125090137Y-69086451D01*
X125092430Y-69081811D01*
X125157370Y-68868069D01*
X125186529Y-68646590D01*
X125186611Y-68643240D01*
X125188074Y-68583365D01*
X125188074Y-68583361D01*
X125188156Y-68580000D01*
X125169852Y-68357361D01*
X125115431Y-68140702D01*
X125026354Y-67935840D01*
X124914291Y-67762617D01*
X124907822Y-67752617D01*
X124907820Y-67752614D01*
X124905014Y-67748277D01*
X124754670Y-67583051D01*
X124750619Y-67579852D01*
X124750615Y-67579848D01*
X124583414Y-67447800D01*
X124583410Y-67447798D01*
X124579359Y-67444598D01*
X124574835Y-67442100D01*
X124574831Y-67442098D01*
X124534453Y-67419808D01*
X124484483Y-67369376D01*
X124469711Y-67299933D01*
X124494827Y-67233528D01*
X124551858Y-67191243D01*
X124595347Y-67183500D01*
X125447329Y-67183500D01*
X125515450Y-67203502D01*
G37*
G04 #@! TD.AperFunction*
G04 #@! TA.AperFunction,Conductor*
G36*
X112731811Y-70578502D02*
G01*
X112778304Y-70632158D01*
X112788408Y-70702432D01*
X112785107Y-70718173D01*
X112744614Y-70864184D01*
X112746137Y-70872607D01*
X112758517Y-70876000D01*
X113808110Y-70876000D01*
X113823349Y-70871525D01*
X113824554Y-70870135D01*
X113826225Y-70862452D01*
X113826225Y-70684500D01*
X113846227Y-70616379D01*
X113899883Y-70569886D01*
X113952225Y-70558500D01*
X114208225Y-70558500D01*
X114276346Y-70578502D01*
X114322839Y-70632158D01*
X114334225Y-70684500D01*
X114334225Y-71555500D01*
X114314223Y-71623621D01*
X114260567Y-71670114D01*
X114208225Y-71681500D01*
X113952225Y-71681500D01*
X113884104Y-71661498D01*
X113837611Y-71607842D01*
X113826225Y-71555500D01*
X113826225Y-71402115D01*
X113821750Y-71386876D01*
X113820360Y-71385671D01*
X113812677Y-71384000D01*
X112763450Y-71384000D01*
X112749919Y-71387973D01*
X112748482Y-71397966D01*
X112777742Y-71527799D01*
X112773206Y-71598651D01*
X112731084Y-71655802D01*
X112664751Y-71681108D01*
X112654825Y-71681500D01*
X112105660Y-71681500D01*
X112037539Y-71661498D01*
X112016565Y-71644595D01*
X111861383Y-71489413D01*
X111827357Y-71427101D01*
X111825556Y-71383871D01*
X111839265Y-71279740D01*
X111851529Y-71186590D01*
X111851611Y-71183240D01*
X111853074Y-71123365D01*
X111853074Y-71123361D01*
X111853156Y-71120000D01*
X111834852Y-70897361D01*
X111789095Y-70715195D01*
X111791899Y-70644254D01*
X111832612Y-70586091D01*
X111898307Y-70559172D01*
X111911299Y-70558500D01*
X112663690Y-70558500D01*
X112731811Y-70578502D01*
G37*
G04 #@! TD.AperFunction*
G04 #@! TA.AperFunction,Conductor*
G36*
X112828644Y-67203502D02*
G01*
X112875137Y-67257158D01*
X112885241Y-67327432D01*
X112861349Y-67385065D01*
X112785439Y-67486352D01*
X112776901Y-67501946D01*
X112731747Y-67622394D01*
X112728120Y-67637649D01*
X112722594Y-67688514D01*
X112722225Y-67695328D01*
X112722225Y-68317885D01*
X112726700Y-68333124D01*
X112728090Y-68334329D01*
X112735773Y-68336000D01*
X114208225Y-68336000D01*
X114276346Y-68356002D01*
X114322839Y-68409658D01*
X114334225Y-68462000D01*
X114334225Y-69015500D01*
X114314223Y-69083621D01*
X114260567Y-69130114D01*
X114208225Y-69141500D01*
X113952225Y-69141500D01*
X113884104Y-69121498D01*
X113837611Y-69067842D01*
X113826225Y-69015500D01*
X113826225Y-68862115D01*
X113821750Y-68846876D01*
X113820360Y-68845671D01*
X113812677Y-68844000D01*
X112740341Y-68844000D01*
X112725102Y-68848475D01*
X112723897Y-68849865D01*
X112722226Y-68857548D01*
X112722226Y-69015500D01*
X112702224Y-69083621D01*
X112648568Y-69130114D01*
X112596226Y-69141500D01*
X112105660Y-69141500D01*
X112037539Y-69121498D01*
X112016565Y-69104595D01*
X111861383Y-68949413D01*
X111827357Y-68887101D01*
X111825556Y-68843871D01*
X111843444Y-68708000D01*
X111851529Y-68646590D01*
X111851611Y-68643240D01*
X111853074Y-68583365D01*
X111853074Y-68583361D01*
X111853156Y-68580000D01*
X111834852Y-68357361D01*
X111780431Y-68140702D01*
X111691354Y-67935840D01*
X111579291Y-67762617D01*
X111572822Y-67752617D01*
X111572820Y-67752614D01*
X111570014Y-67748277D01*
X111419670Y-67583051D01*
X111415619Y-67579852D01*
X111415615Y-67579848D01*
X111248414Y-67447800D01*
X111248410Y-67447798D01*
X111244359Y-67444598D01*
X111239835Y-67442100D01*
X111239831Y-67442098D01*
X111199453Y-67419808D01*
X111149483Y-67369376D01*
X111134711Y-67299933D01*
X111159827Y-67233528D01*
X111216858Y-67191243D01*
X111260347Y-67183500D01*
X112760523Y-67183500D01*
X112828644Y-67203502D01*
G37*
G04 #@! TD.AperFunction*
M02*
